<svg width="142" height="55" viewBox="0 0 142 55" fill="none" xmlns="http://www.w3.org/2000/svg">
<path d="M142 38.2014H137.729L137.708 54.4524H133.477L133.498 38.2014H130.264V33.9334H133.498L133.477 27.4905H137.708L137.729 33.9334H142V38.2014Z" fill="white"/>
<path d="M123.835 48.5936L127.62 50.6403C126.697 51.9236 125.524 52.9503 124.1 53.7204C122.689 54.4904 121.156 54.8754 119.501 54.8754C117.629 54.8754 115.92 54.3958 114.374 53.4367C112.841 52.4775 111.614 51.1941 110.691 49.5865C109.782 47.9654 109.328 46.1755 109.328 44.2166C109.328 42.7306 109.592 41.3459 110.121 40.0625C110.65 38.7657 111.376 37.6309 112.299 36.6582C113.234 35.6721 114.32 34.902 115.554 34.3481C116.788 33.7943 118.104 33.5173 119.501 33.5173C121.156 33.5173 122.689 33.9023 124.1 34.6724C125.524 35.4424 126.697 36.4759 127.62 37.7727L123.835 39.8194C123.265 39.1439 122.601 38.6306 121.841 38.2793C121.082 37.9146 120.302 37.7322 119.501 37.7322C118.389 37.7322 117.378 38.0362 116.47 38.6441C115.574 39.2385 114.862 40.0288 114.333 41.015C113.818 41.9876 113.56 43.0548 113.56 44.2166C113.56 45.3649 113.825 46.4321 114.354 47.4183C114.883 48.391 115.595 49.1745 116.49 49.7689C117.399 50.3633 118.403 50.6605 119.501 50.6605C120.342 50.6605 121.143 50.4714 121.902 50.0931C122.662 49.7149 123.306 49.215 123.835 48.5936Z" fill="white"/>
<path d="M97.1393 54.8754C95.2577 54.8754 93.5397 54.3958 91.9853 53.4367C90.4445 52.4775 89.2106 51.1941 88.2834 49.5865C87.3699 47.9654 86.9131 46.1755 86.9131 44.2166C86.9131 42.7306 87.179 41.3459 87.7107 40.0625C88.2425 38.7657 88.972 37.6309 89.8991 36.6582C90.8399 35.6721 91.9307 34.902 93.1715 34.3481C94.4123 33.7943 95.7349 33.5173 97.1393 33.5173C98.7073 33.5173 100.146 33.8416 101.455 34.49C102.764 35.1249 103.882 36.0098 104.809 37.1446C105.736 38.2658 106.418 39.5627 106.854 41.0352C107.29 42.4942 107.42 44.0478 107.243 45.6959H91.474C91.6512 46.628 91.9921 47.4724 92.4966 48.2289C93.0147 48.9719 93.6692 49.5595 94.46 49.9918C95.2645 50.4241 96.1576 50.647 97.1393 50.6605C98.1755 50.6605 99.1163 50.4039 99.9617 49.8905C100.821 49.3772 101.523 48.6679 102.068 47.7628L106.384 48.7557C105.566 50.5525 104.332 52.025 102.682 53.1732C101.032 54.308 99.1845 54.8754 97.1393 54.8754ZM91.3308 42.4739H102.948C102.811 41.5013 102.464 40.6232 101.905 39.8396C101.359 39.0426 100.671 38.4144 99.839 37.9551C99.0209 37.4823 98.121 37.2459 97.1393 37.2459C96.1712 37.2459 95.2713 37.4755 94.4396 37.9348C93.6215 38.3942 92.9397 39.0223 92.3943 39.8194C91.8626 40.6029 91.5081 41.4878 91.3308 42.4739Z" fill="white"/>
<path d="M84.4803 41.6837V54.4525H80.2529V42.7223C80.2529 41.8126 80.0293 40.9845 79.5822 40.2378C79.1486 39.491 78.5592 38.9005 77.8139 38.466C77.0823 38.018 76.2558 37.794 75.3344 37.794C74.4401 37.794 73.6204 38.018 72.8752 38.466C72.1299 38.9005 71.5338 39.491 71.0866 40.2378C70.6395 40.9845 70.4159 41.8126 70.4159 42.7223V54.4525H66.1885V34.0876H70.4159V36.2462C71.1205 35.4045 71.9877 34.7392 73.0174 34.2505C74.0472 33.7617 75.1582 33.5173 76.3506 33.5173C77.8546 33.5173 79.2231 33.8839 80.4561 34.617C81.6891 35.3502 82.6647 36.3345 83.3828 37.57C84.1145 38.8054 84.4803 40.1767 84.4803 41.6837Z" fill="white"/>
<path d="M62.0655 41.6837V54.4525H57.8381V42.7223C57.8381 41.8126 57.6145 40.9845 57.1674 40.2378C56.7338 39.491 56.1444 38.9005 55.3991 38.466C54.6675 38.018 53.841 37.794 52.9196 37.794C52.0253 37.794 51.2056 38.018 50.4604 38.466C49.7151 38.9005 49.119 39.491 48.6718 40.2378C48.2247 40.9845 48.0011 41.8126 48.0011 42.7223V54.4525H43.7737V34.0876H48.0011V36.2462C48.7057 35.4045 49.5729 34.7392 50.6026 34.2505C51.6324 33.7617 52.7434 33.5173 53.9358 33.5173C55.4398 33.5173 56.8083 33.8839 58.0413 34.617C59.2743 35.3502 60.2499 36.3345 60.968 37.57C61.6997 38.8054 62.0655 40.1767 62.0655 41.6837Z" fill="white"/>
<path d="M15.7766 48.5936L19.5611 50.6403C18.6387 51.9236 17.4654 52.9503 16.0411 53.7204C14.6304 54.4904 13.0976 54.8754 11.4427 54.8754C9.5708 54.8754 7.86167 54.3958 6.31531 53.4367C4.78251 52.4775 3.55492 51.1941 2.63253 49.5865C1.7237 47.9654 1.26929 46.1755 1.26929 44.2166C1.26929 42.7306 1.5338 41.3459 2.06281 40.0625C2.59183 38.7657 3.31754 37.6309 4.23993 36.6582C5.17588 35.6721 6.26105 34.902 7.49542 34.3481C8.7298 33.7943 10.0456 33.5173 11.4427 33.5173C13.0976 33.5173 14.6304 33.9023 16.0411 34.6724C17.4654 35.4424 18.6387 36.4759 19.5611 37.7727L15.7766 39.8194C15.2069 39.1439 14.5422 38.6306 13.7826 38.2793C13.023 37.9146 12.243 37.7322 11.4427 37.7322C10.3304 37.7322 9.31986 38.0362 8.41103 38.6441C7.51577 39.2385 6.80363 40.0288 6.27461 41.015C5.75916 41.9876 5.50143 43.0548 5.50143 44.2166C5.50143 45.3649 5.76594 46.4321 6.29496 47.4183C6.82398 48.391 7.53612 49.1745 8.43138 49.7689C9.3402 50.3633 10.344 50.6605 11.4427 50.6605C12.2837 50.6605 13.084 50.4714 13.8436 50.0931C14.6033 49.7149 15.2476 49.215 15.7766 48.5936Z" fill="white"/>
<path d="M25.3543 48.5936L21.5698 50.6403C22.4921 51.9236 23.6655 52.9503 25.0898 53.7204C26.5005 54.4904 28.0333 54.8754 29.6881 54.8754C31.5601 54.8754 33.2692 54.3958 34.8156 53.4367C36.3483 52.4775 37.5759 51.1941 38.4983 49.5865C39.4072 47.9654 39.8616 46.1755 39.8616 44.2166C39.8616 42.7306 39.5971 41.3459 39.068 40.0625C38.539 38.7657 37.8133 37.6309 36.8909 36.6582C35.955 35.6721 34.8698 34.902 33.6354 34.3481C32.4011 33.7943 31.0853 33.5173 29.6881 33.5173C28.0333 33.5173 26.5005 33.9023 25.0898 34.6724C23.6655 35.4424 22.4921 36.4759 21.5698 37.7727L25.3543 39.8194C25.924 39.1439 26.5886 38.6306 27.3483 38.2793C28.1079 37.9146 28.8878 37.7322 29.6881 37.7322C30.8004 37.7322 31.811 38.0362 32.7198 38.6441C33.6151 39.2385 34.3272 40.0288 34.8562 41.015C35.3717 41.9876 35.6294 43.0548 35.6294 44.2166C35.6294 45.3649 35.3649 46.4321 34.8359 47.4183C34.3069 48.391 33.5947 49.1745 32.6995 49.7689C31.7907 50.3633 30.7869 50.6605 29.6881 50.6605C28.8471 50.6605 28.0468 50.4714 27.2872 50.0931C26.5276 49.7149 25.8833 49.215 25.3543 48.5936Z" fill="white"/>
<path d="M63.735 25.4248V11.5954C63.735 10.904 62.9664 9.78698 62.0332 9.78698V9.57422H66.919C66.919 9.57422 66.9193 18.9024 66.919 25.4248C66.9189 26.4886 67.962 27.2332 68.6208 27.2332V27.446H62.0555L62.0555 27.2332C62.3626 27.2332 63.735 26.7545 63.735 25.4248Z" fill="white"/>
<path d="M50.2852 25.4248H49.8461C49.8461 25.744 48.9408 26.8078 47.7051 26.8078C46.168 26.8078 44.9054 26.0099 44.9054 21.3824V9.9998H46.7718V9.57428H44.9054V5.31909H44.4662C44.4662 7.71263 42.7644 9.57428 40.0745 9.57428V9.9998H41.7214V21.3824C41.7214 27.1269 44.9054 27.4461 46.8267 27.4461C49.4618 27.4461 50.2852 25.8504 50.2852 25.4248Z" fill="white"/>
<path d="M38.9767 11.0103C38.9767 10.3721 38.5376 9.57422 36.3966 9.57422C34.7131 9.57422 32.2428 10.9678 31.0716 13.3507V9.57422H26.2407V9.78698C26.2407 9.78698 27.8876 9.99974 27.8876 11.5954V25.4248C27.8876 26.6482 26.6799 27.2332 26.2407 27.2332L26.2407 27.446H32.7734V27.2332C32.3342 27.2332 31.0716 26.7545 31.0716 25.4248L31.1631 14.3784C32.3342 10.904 34.109 10.6824 35.3536 10.5316C37.0554 10.3255 36.2868 12.2337 37.769 12.2337C38.5925 12.2337 38.9767 11.6486 38.9767 11.0103Z" fill="white"/>
<path d="M10.4269 2.34033L10.7049 3.08499C10.7049 3.08499 2.7267 24.2545 2.29659 25.4247C1.86648 26.5949 1.15283 27.2332 0 27.2332V27.4459H4.28193V27.2332C2.90952 27.2332 2.25076 27.0736 2.90952 25.4247L5.72909 18.0845L5.85197 17.7654L6.14964 16.9922L6.70293 15.518L11.0343 3.67008L15.6477 15.518L16.2471 16.9922L16.5439 17.7654L16.6664 18.0845C16.6664 18.0845 18.9895 23.5641 19.7628 25.4247C20.5361 27.2854 19.104 27.2332 18.3355 27.2332V27.4459H25.7325V27.2332C24.2094 27.2332 23.805 26.8305 23.2213 25.4247C22.6375 24.0189 13.6694 2.34033 13.6694 2.34033H10.4269Z" fill="white"/>
<path d="M16.544 17.7654H5.85213L5.72925 18.0845H16.6666L16.544 17.7654Z" fill="white"/>
<path d="M58.1902 12.2337C59.1783 12.2337 59.1783 13.4038 59.1783 14.574H59.5077V9.57417H59.1783C59.1783 10.7443 59.1783 11.9145 58.1902 11.9145L54.567 11.9169V6.91704C54.567 4.29826 54.4023 2.92772 55.0062 1.97031C55.62 0.846892 56.5432 0.585088 57.6961 0.585088C57.8608 0.585088 60.9478 0.714087 60.5507 2.76587C60.386 3.61691 60.9899 4.36383 61.8134 4.36394C62.4721 4.36403 63.1309 3.77648 63.1309 3.08501C63.1309 1.64888 60.3861 0.279421 58.7391 0.0554633C55.9943 -0.26366 54.4023 0.85476 53.1946 1.86393C51.5477 3.67238 51.2732 5.21489 51.3654 9.67715V12.9476C51.3654 12.9476 51.4379 24.8928 51.4379 25.4247C51.4379 26.5417 50.34 27.2332 49.7361 27.2332L49.7361 27.4483H56.2688L56.2688 27.2332C55.7198 27.2332 54.567 26.5949 54.567 25.4247V12.236C54.567 12.236 56.8727 12.2337 58.1902 12.2337Z" fill="white"/>
<path d="M63.0217 6.47067C63.0217 7.59551 63.8554 8.404 65.0301 8.404C66.3185 8.404 67.3037 7.3846 67.3037 6.25976C67.3037 5.17006 66.4321 4.36157 65.2574 4.36157C64.0069 4.36157 63.0217 5.38097 63.0217 6.47067Z" fill="white"/>
</svg>
