<svg width="80" height="33" viewBox="0 0 80 33" fill="none" xmlns="http://www.w3.org/2000/svg">
<path d="M74.3041 29.7623L74.3041 13.5736C74.3041 12.7641 73.4081 11.4566 72.3201 11.4566L72.3201 11.2075L78.0161 11.2075C78.0161 11.2075 78.0165 22.1272 78.0161 29.7623C78.016 31.0076 79.2321 31.8793 80.0001 31.8793L80.0001 32.1283L72.3461 32.1283L72.346 31.8793C72.7041 31.8793 74.3041 31.3189 74.3041 29.7623Z" fill="white"/>
<path d="M58.624 29.7625L58.112 29.7625C58.112 30.1361 57.0565 31.3813 55.616 31.3813C53.824 31.3813 52.352 30.4474 52.352 25.0304L52.352 11.7058L54.528 11.7058L54.528 11.2077L52.352 11.2077L52.352 6.22656L51.84 6.22656C51.8399 9.02845 49.856 11.2077 46.72 11.2077L46.72 11.7058L48.64 11.7058L48.64 25.0304C48.64 31.7549 52.352 32.1285 54.592 32.1285C57.664 32.1285 58.624 30.2606 58.624 29.7625Z" fill="white"/>
<path d="M45.44 12.8887C45.44 12.1415 44.928 11.2075 42.432 11.2075C40.4694 11.2075 37.5894 12.8388 36.224 15.6283L36.224 11.2075L30.592 11.2075L30.592 11.4566C30.592 11.4566 32.512 11.7056 32.512 13.5736L32.512 29.7623C32.512 31.1944 31.104 31.8793 30.5921 31.8793L30.592 32.1283L38.208 32.1283L38.208 31.8793C37.696 31.8793 36.224 31.3189 36.224 29.7623L36.3307 16.8314C37.696 12.7641 39.7651 12.5047 41.216 12.3283C43.2 12.087 42.304 14.3207 44.032 14.3207C44.992 14.3207 45.44 13.6358 45.44 12.8887Z" fill="white"/>
<path d="M12.156 2.7395L12.4801 3.6112C12.4801 3.6112 3.17887 28.3924 2.67743 29.7622C2.176 31.132 1.344 31.8792 1.23471e-07 31.8792L1.24526e-07 32.1283L4.992 32.1283L4.992 31.8792C3.392 31.8792 2.624 31.6924 3.392 29.7622L6.67913 21.1697L6.82239 20.7962L7.16942 19.8911L7.81447 18.1654L12.8641 4.29611L18.2426 18.1654L18.9413 19.8911L19.2873 20.7962L19.4301 21.1697C19.4301 21.1697 22.1385 27.5841 23.04 29.7622C23.9416 31.9403 22.272 31.8792 21.376 31.8792L21.376 32.1283L29.9996 32.1283L29.9996 31.8792C28.224 31.8792 27.7526 31.4078 27.072 29.7622C26.3915 28.1166 15.9361 2.7395 15.9361 2.7395L12.156 2.7395Z" fill="white"/>
<path d="M19.2874 20.7964L6.82246 20.7964L6.6792 21.17L19.4302 21.17L19.2874 20.7964Z" fill="white"/>
<path d="M67.8399 14.3208C68.9919 14.3208 68.9919 15.6906 68.9919 17.0604L69.3759 17.0604L69.3759 11.2076L68.9919 11.2076C68.9919 12.5774 68.9919 13.9472 67.8399 13.9472L63.6159 13.95L63.6159 8.09712C63.6159 5.03157 63.4239 3.42721 64.1279 2.30645C64.8435 0.991376 65.9199 0.684908 67.2639 0.684908C67.4559 0.684908 71.0548 0.835914 70.5919 3.23774C70.3999 4.23397 71.1039 5.10833 72.0639 5.10846C72.8319 5.10856 73.5999 4.42077 73.5999 3.61133C73.5999 1.93019 70.3999 0.327091 68.4799 0.0649257C65.2799 -0.308642 63.4239 1.00059 62.0159 2.18193C60.0959 4.29891 59.7759 6.10458 59.8834 11.3281L59.8834 15.1565C59.8834 15.1565 59.9679 29.1397 59.9679 29.7623C59.9679 31.0699 58.6879 31.8793 57.9839 31.8793L57.9839 32.1311L65.5999 32.1311L65.5999 31.8793C64.9599 31.8793 63.6159 31.1322 63.6159 29.7623L63.6159 14.3236C63.6159 14.3236 66.3039 14.3208 67.8399 14.3208Z" fill="white"/>
<path d="M73.4719 7.57463C73.4719 8.89138 74.4438 9.8378 75.8133 9.8378C77.3154 9.8378 78.4639 8.64449 78.4639 7.32774C78.4639 6.05213 77.4479 5.10571 76.0784 5.10571C74.6205 5.10571 73.4719 6.29902 73.4719 7.57463Z" fill="url(#paint0_linear_1740_2339)"/>
<defs>
<linearGradient id="paint0_linear_1740_2339" x1="74.8159" y1="6.10194" x2="77.5381" y2="9.59951" gradientUnits="userSpaceOnUse">
<stop stop-color="#769CFB"/>
<stop offset="1" stop-color="#7D70FA"/>
</linearGradient>
</defs>
</svg>
