<svg width="148" height="60" viewBox="0 0 148 60" fill="none" xmlns="http://www.w3.org/2000/svg">
<g id="Artfi Logo">
<path id="Vector" d="M137.377 54.7616L137.377 24.975C137.377 23.4857 135.722 21.0798 133.711 21.0798V20.6216H144.235C144.235 20.6216 144.235 40.7133 144.235 54.7616C144.235 57.0529 146.481 58.6568 147.9 58.6568V59.115H133.759L133.759 58.6568C134.421 58.6568 137.377 57.6257 137.377 54.7616Z" fill="#181818"/>
<path id="Vector_2" d="M108.408 54.7614H107.462C107.462 55.4488 105.512 57.7401 102.851 57.7401C99.5399 57.7401 96.8204 56.0216 96.8204 46.0546V21.5379H100.841V20.6214L96.8204 20.6214V11.4563H95.8745C95.8744 16.6117 92.2091 20.6214 86.4153 20.6214V21.5379H89.9625V46.0546C89.9625 58.4274 96.8204 59.1148 100.959 59.1148C106.634 59.1148 108.408 55.6779 108.408 54.7614Z" fill="#181818"/>
<path id="Vector_3" d="M84.0506 23.7148C84.0506 22.34 83.1047 20.6216 78.4933 20.6216C74.8673 20.6216 69.5465 23.6232 67.024 28.7556V20.6216H56.6189V21.0798C56.6189 21.0798 60.1661 21.5381 60.1661 24.975V54.7616C60.1661 57.3966 57.5648 58.6568 56.6189 58.6568L56.6189 59.115H70.6895V58.6568C69.7435 58.6568 67.024 57.6257 67.024 54.7616L67.221 30.9692C69.7435 23.4857 73.5661 23.0084 76.2467 22.6837C79.9122 22.2398 78.2568 26.3498 81.4493 26.3498C83.2229 26.3498 84.0506 25.0896 84.0506 23.7148Z" fill="#181818"/>
<path id="Vector_4" d="M22.5583 5.04077L23.1571 6.64466C23.1571 6.64466 5.97306 52.241 5.04666 54.7615C4.12026 57.2819 2.58314 58.6566 0.100098 58.6566V59.1149H9.32282V58.6566C6.36682 58.6566 4.94794 58.3129 6.36682 54.7615L12.4398 38.9516L12.7045 38.2643L13.3456 36.599L14.5373 33.4237L23.8666 7.90487L33.8032 33.4237L35.0942 36.599L35.7334 38.2643L35.9973 38.9516C35.9973 38.9516 41.0009 50.7539 42.6665 54.7615C44.3321 58.769 41.2476 58.6566 39.5923 58.6566V59.1149H55.5244V58.6566C52.2439 58.6566 51.3729 57.7893 50.1156 54.7615C48.8583 51.7336 29.5421 5.04077 29.5421 5.04077H22.5583Z" fill="#181818"/>
<path id="Vector_5" d="M35.7333 38.2644H12.7044L12.4397 38.9518H35.9972L35.7333 38.2644Z" fill="#181818"/>
<path id="Vector_6" d="M125.435 26.3497C127.563 26.3497 127.563 28.8701 127.563 31.3905H128.272V20.6215L127.563 20.6215C127.563 23.1419 127.563 25.6623 125.435 25.6623L117.631 25.6674V14.8984C117.631 9.25788 117.276 6.30593 118.577 4.24378C119.899 1.82409 121.887 1.2602 124.37 1.2602C124.725 1.2602 131.374 1.53805 130.519 5.95732C130.164 7.79034 131.465 9.39911 133.238 9.39935C134.657 9.39954 136.076 8.13403 136.076 6.6447C136.076 3.55148 130.164 0.601835 126.617 0.119461C120.705 -0.567889 117.276 1.84104 114.675 4.01465C111.128 7.90982 110.536 11.2322 110.735 20.8433V27.8874C110.735 27.8874 110.891 53.6159 110.891 54.7615C110.891 57.1673 108.526 58.6567 107.226 58.6567L107.226 59.12H121.296L121.296 58.6567C120.114 58.6567 117.631 57.2819 117.631 54.7615V26.3548C117.631 26.3548 122.597 26.3497 125.435 26.3497Z" fill="#181818"/>
<path id="Vector_7" d="M135.84 13.937C135.84 16.3598 137.635 18.1011 140.165 18.1011C142.94 18.1011 145.062 15.9055 145.062 13.4827C145.062 11.1357 143.185 9.39429 140.655 9.39429C137.962 9.39429 135.84 11.5899 135.84 13.937Z" fill="url(#paint0_linear_2116_462)"/>
</g>
<defs>
<linearGradient id="paint0_linear_2116_462" x1="140.451" y1="9.39429" x2="140.451" y2="18.1011" gradientUnits="userSpaceOnUse">
<stop stop-color="#769AFB"/>
<stop offset="1" stop-color="#7D6CF9"/>
</linearGradient>
</defs>
</svg>
