<svg width="120" height="46" viewBox="0 0 120 46" fill="none" xmlns="http://www.w3.org/2000/svg">
<g id="Curated">
<path id="Vector" d="M102.234 27.161C102.333 23.901 105.917 18.9985 109.724 20.2926C111.442 12.7274 113.706 6.5806 115.398 4.96304C116.916 3.17127 119.305 3.07173 119.032 6.33175C118.633 10.7365 114.154 18.3266 111.267 22.8807C109.6 27.1859 108.256 32.7354 108.53 37.7623C108.654 40.4251 109.476 42.0675 111.193 42.9634C112.387 43.6353 111.018 45.0289 109.5 43.71C108.405 42.6896 107.858 40.6241 107.684 37.9365C107.46 34.353 107.908 29.8984 108.679 25.3444C107.435 27.385 105.444 30.4459 103.329 29.5749C102.508 29.2514 102.209 28.1813 102.234 27.161ZM109.476 21.3378C107.559 20.2677 105.618 23.9508 105.145 25.3444C104.946 25.8172 104.673 27.1361 104.996 27.609C105.369 28.0569 107.858 24.8715 109.476 21.3378ZM115.274 9.96505C113.88 12.6527 112.785 16.2113 111.964 19.6704C113.557 16.8086 115.398 13.2748 116.593 10.2637C118.235 6.03312 117.19 6.18244 115.274 9.96505Z" fill="#FC7E43"/>
<path id="Vector_2" d="M90.6032 23.1546C91.524 21.8357 93.3158 20.1435 95.2071 20.5416C96.103 20.7407 96.5509 21.2384 96.6255 21.8108C96.8246 23.1049 94.5849 24.2496 92.3203 24.1749C91.6733 25.6681 90.9765 28.3059 92.9674 29.1023C96.0283 30.3963 102.523 24.9464 103.096 24.1749C103.842 23.2293 104.888 23.6523 103.842 24.7722C101.553 27.4598 95.7794 31.1429 91.6235 30.247C88.0151 29.376 88.8612 25.6183 90.6032 23.1546ZM94.56 21.5122C94.3858 21.1389 93.8384 21.3131 92.7683 23.3039C93.7637 23.4284 94.8338 22.1343 94.56 21.5122Z" fill="#FC7E43"/>
<path id="Vector_3" d="M72.6509 14.2954C73.721 14.4696 74.6666 14.5442 75.6371 14.6189C78.9469 14.7931 82.2816 14.5442 85.6412 14.1709C87.2338 8.79565 89.1998 4.06738 91.1658 1.57882C92.5843 -0.312487 95.0977 -0.212945 94.7742 3.04707C94.4507 5.90892 92.3603 9.91551 90.1704 13.723C94.1521 13.3248 99.7762 12.6778 104.156 13.1506C106.246 13.4244 108.013 13.8972 109.183 14.818C110.054 15.5397 108.262 16.9084 107.59 15.4152C107.117 14.3451 105.774 13.8474 103.982 13.6483C100.05 13.2502 93.9032 14.3203 89.6975 14.7931C89.6478 14.818 89.598 14.818 89.5233 14.818C88.4532 16.5102 87.4578 18.1029 86.5868 19.4218C84.8946 23.6773 82.3065 32.7356 82.5056 37.8123C82.5802 40.4751 83.3268 42.0926 85.019 43.0632C86.2384 43.8097 84.7951 45.1287 83.3019 43.76C82.2318 42.6899 81.7092 40.6244 81.6346 37.9367C81.4355 32.3623 83.0282 23.1547 85.3425 15.1913C82.2816 15.3903 79.2207 15.4899 76.0104 15.3157C74.144 15.241 72.6509 15.0917 71.6803 14.818C70.4609 14.2207 71.6554 12.5783 72.6509 14.2954ZM90.9169 6.58083C89.7971 8.67122 88.8016 11.2344 88.0053 13.9221L88.727 13.8474C90.021 11.558 91.3151 9.11917 92.211 6.90435C94.0027 2.72356 92.9327 2.89776 90.9169 6.58083ZM87.3832 16.1867L88.1048 14.9673C87.9804 14.9673 87.8311 14.9922 87.7067 14.9922C87.5822 15.3903 87.4827 15.7885 87.3832 16.1867Z" fill="#FC7E43"/>
<path id="Vector_4" d="M71.3111 24.0755C70.241 24.9464 67.0059 30.7199 64.3182 29.3263C63.5219 28.9281 63.3228 27.8332 63.4472 26.8129C63.9201 22.7316 68.0511 19.4965 72.207 20.0938C73.4761 20.268 74.6458 20.8403 75.2181 22.0348C75.7407 23.1547 74.3223 23.4284 73.8494 22.2339C73.3766 21.3629 72.6549 20.9399 71.8586 20.8652C69.818 20.6661 67.4289 23.0054 66.5082 25.27C66.3091 25.7179 65.8114 27.0368 66.1598 27.5097C66.5579 28.1069 70.7387 23.4782 71.2364 22.9805C72.431 21.8606 73.7997 22.3832 73.4513 23.4782C72.3314 26.8626 73.0033 28.306 74.3969 28.6295C76.7859 29.1521 81.3898 26.3152 83.1815 24.175C83.8535 23.2293 84.9982 23.7022 83.9779 24.7971C81.7631 27.4101 77.5823 30.048 73.9241 29.6498C70.9378 29.3761 69.9175 26.788 71.3111 24.0755Z" fill="#FC7E43"/>
<path id="Vector_5" d="M65.1173 24.7968C63.649 26.6633 59.1945 32.0386 55.2128 32.7354C54.0183 32.9344 52.6993 32.7105 51.8781 31.6404C50.6338 29.8735 51.7039 27.0365 52.7989 25.6181C51.5297 25.8171 49.8126 25.0706 49.5389 23.8263C49.4144 23.1544 49.6882 22.2087 50.6587 21.6115C51.3804 21.2133 52.2514 21.5119 52.326 22.1092C52.4505 22.6816 51.3804 23.0051 51.4551 23.2042C51.5795 23.8512 53.421 24.3738 54.0929 24.7719C56.3575 26.2402 53.2717 28.9527 53.2717 30.645C53.2717 31.7897 54.5409 31.8892 55.4865 31.6902C58.8212 30.8938 62.9273 25.6927 64.3209 24.1747C65.0924 23.3286 66.1376 23.7268 65.1173 24.7968Z" fill="#FC7E43"/>
<path id="Vector_6" d="M37.4695 22.7068C37.146 23.8267 35.2796 27.5844 35.0058 29.1273C34.8067 30.1974 35.5782 29.8988 36.1257 29.4011C37.569 28.2065 39.5101 24.7474 39.9083 24.3493C41.053 23.4036 42.4715 24.3244 41.9489 25.4691C40.6797 28.0821 40.7046 29.7743 41.8742 30.0481C44.2633 30.2472 48.021 26.2157 49.6883 24.1751C50.3602 23.2294 51.505 23.7022 50.4847 24.7972C48.3694 27.3853 44.9103 31.2426 41.3516 31.0435C39.1119 30.9191 38.6391 29.2269 39.4852 27.3604C37.9921 29.2517 36.2003 31.5412 34.1846 30.5458C32.8159 29.8988 32.9403 28.1319 33.1892 26.9623C33.6371 24.7972 34.7818 22.5575 35.404 21.6616C36.3994 20.3178 37.8677 21.0644 37.4695 22.7068Z" fill="#FC7E43"/>
<path id="Vector_7" d="M12.7807 6.03329C14.9706 3.37053 18.1311 0.434027 21.8888 0.234941C24.9 0.0358559 27.4881 2.25068 26.8162 7.30246C26.418 10.0897 25.4474 13.2501 24.3774 14.5193C22.4861 16.8088 20.8934 14.7433 22.4612 13.3746C24.0787 12.3791 25.5221 9.91545 25.97 7.55132C26.6917 3.49496 24.3276 1.47922 21.3413 1.67831C17.9071 1.95205 15.2195 4.68947 13.0295 7.47666C7.35559 14.6437 -0.309178 29.9982 2.97572 39.8778C4.09558 43.4115 6.43483 44.83 8.99805 44.9046C12.2332 45.0291 16.1651 43.0382 19.4002 40.475C22.2621 38.2602 25.0244 35.4979 27.4881 32.7853C30.4495 29.5253 32.7638 26.34 34.1325 24.1749C34.9289 22.856 35.8248 23.8016 34.8791 25.021C33.1122 27.6091 30.8725 30.5705 28.2844 33.5568C25.5968 36.6675 22.6354 39.6289 19.5247 41.8935C16.5384 44.2825 12.5816 45.9996 9.02293 45.9996C5.93712 46.0245 3.32412 44.8549 1.55724 41.9681C-4.04202 33.0591 6.80811 13.3248 12.7807 6.03329Z" fill="#FC7E43"/>
</g>
</svg>
