<svg width="153" height="28" viewBox="0 0 153 28" fill="none" xmlns="http://www.w3.org/2000/svg">
<path d="M0 11.9053V8.38132L16.096 0.0952148V4.95259L0 11.9053Z" fill="white"/>
<path d="M0 18.6676V15.1436L16.096 9.0481V13.8102L0 18.6676Z" fill="white"/>
<path d="M0 25.2392V21.7152L16.096 17.9055V22.3819L0 25.2392Z" fill="white"/>
<path d="M18.3818 4.57165V0L56.3836 14.2864V16.9532L18.3818 4.57165Z" fill="white"/>
<path d="M18.3818 13.5243V8.95264L56.3836 19.2388V22.0961L18.3818 13.5243Z" fill="white"/>
<path d="M18.3818 22.4772V17.9055L56.3836 24.1915V27.1441L18.3818 22.4772Z" fill="white"/>
<path d="M97.7871 12.8645L97.7871 7.57934C97.7871 7.31508 97.4934 6.8882 97.1367 6.8882V6.80688H99.0039C99.0039 6.80688 99.0041 10.3719 99.0039 12.8645C99.0039 13.2711 99.4025 13.5557 99.6543 13.5557V13.637H97.1452L97.1452 13.5557C97.2626 13.5557 97.7871 13.3727 97.7871 12.8645Z" fill="white"/>
<path d="M92.6471 12.8645H92.4793C92.4793 12.9865 92.1333 13.393 91.6611 13.393C91.0736 13.393 90.5911 13.0881 90.5911 11.3196V6.9695H91.3044V6.80688L90.5911 6.80688V5.18066H90.4233C90.4233 6.09541 89.7729 6.80688 88.7449 6.80688V6.9695H89.3743V11.3196C89.3743 13.515 90.5911 13.637 91.3254 13.637C92.3324 13.637 92.6471 13.0271 92.6471 12.8645Z" fill="white"/>
<path d="M88.3251 7.35573C88.3251 7.1118 88.1573 6.80688 87.3391 6.80688C86.6957 6.80688 85.7516 7.33947 85.304 8.25015V6.80688H83.4578V6.8882C83.4578 6.8882 84.0872 6.96951 84.0872 7.57934V12.8645C84.0872 13.3321 83.6256 13.5557 83.4578 13.5557L83.4578 13.637H85.9544V13.5557C85.7865 13.5557 85.304 13.3727 85.304 12.8645L85.339 8.64292C85.7865 7.31508 86.4648 7.23039 86.9404 7.17278C87.5908 7.09401 87.2971 7.82327 87.8636 7.82327C88.1783 7.82327 88.3251 7.59966 88.3251 7.35573Z" fill="white"/>
<path d="M77.4143 4.04248L77.5206 4.32707C77.5206 4.32707 74.4715 12.4175 74.3071 12.8647C74.1428 13.3119 73.87 13.5558 73.4294 13.5558V13.6371H75.0659V13.5558C74.5414 13.5558 74.2896 13.4948 74.5414 12.8647L75.6189 10.0595L75.6659 9.9375L75.7797 9.64202L75.9911 9.07862L77.6465 4.55067L79.4096 9.07862L79.6386 9.64202L79.752 9.9375L79.7989 10.0595C79.7989 10.0595 80.6867 12.1536 80.9822 12.8647C81.2778 13.5758 80.7305 13.5558 80.4367 13.5558V13.6371H83.2637V13.5558C82.6816 13.5558 82.5271 13.4019 82.304 12.8647C82.0809 12.3274 78.6535 4.04248 78.6535 4.04248H77.4143Z" fill="white"/>
<path d="M79.752 9.9375H75.6659L75.6189 10.0595H79.7988L79.752 9.9375Z" fill="white"/>
<path d="M95.6682 7.82331C96.0458 7.82331 96.0458 8.27052 96.0458 8.71773H96.1717V6.80693L96.0458 6.80693C96.0458 7.25414 96.0458 7.70135 95.6682 7.70135L94.2835 7.70225V5.79145C94.2835 4.79062 94.2206 4.26684 94.4513 3.90095C94.6859 3.47161 95.0388 3.37155 95.4793 3.37155C95.5423 3.37155 96.722 3.42085 96.5703 4.20499C96.5074 4.53023 96.7382 4.81568 97.0529 4.81573C97.3046 4.81576 97.5564 4.59121 97.5564 4.32695C97.5564 3.77811 96.5074 3.25474 95.878 3.16915C94.829 3.04719 94.2206 3.47461 93.759 3.86029C93.1296 4.55143 93.0247 5.14093 93.0599 6.84629V8.09616C93.0599 8.09616 93.0876 12.6613 93.0876 12.8646C93.0876 13.2915 92.668 13.5557 92.4373 13.5557L92.4373 13.6379H94.9339V13.5557C94.7241 13.5557 94.2835 13.3118 94.2835 12.8646V7.82422C94.2835 7.82422 95.1647 7.82331 95.6682 7.82331Z" fill="white"/>
<path d="M97.5144 5.62073C97.5144 6.05062 97.833 6.3596 98.2819 6.3596C98.7743 6.3596 99.1508 5.97002 99.1508 5.54013C99.1508 5.12368 98.8178 4.8147 98.3688 4.8147C97.8909 4.8147 97.5144 5.20428 97.5144 5.62073Z" fill="white"/>
<path d="M153 20.8139V26.8029H150.688V21.4204C150.688 21.0476 150.596 20.7097 150.413 20.4064C150.23 20.0969 149.983 19.8536 149.674 19.6767C149.37 19.4935 149.032 19.4019 148.66 19.4019C148.287 19.4019 147.946 19.4935 147.636 19.6767C147.333 19.8536 147.09 20.0969 146.907 20.4064C146.73 20.7097 146.641 21.0476 146.641 21.4204V26.8029H144.329L144.32 17.3266H146.632L146.641 18.17C146.963 17.8289 147.349 17.5604 147.797 17.3645C148.246 17.1624 148.729 17.0613 149.247 17.0613C149.936 17.0613 150.564 17.2319 151.133 17.573C151.702 17.9078 152.153 18.3595 152.488 18.9281C152.829 19.4904 153 20.119 153 20.8139Z" fill="white"/>
<path d="M138.106 27.0493C137.234 27.0493 136.438 26.825 135.718 26.3765C135.004 25.9279 134.432 25.3278 134.003 24.576C133.58 23.8179 133.368 22.9808 133.368 22.0648C133.368 21.3698 133.491 20.7223 133.737 20.1221C133.984 19.5156 134.322 18.985 134.751 18.5301C135.187 18.0689 135.693 17.7088 136.268 17.4498C136.843 17.1908 137.455 17.0613 138.106 17.0613C138.978 17.0613 139.771 17.2856 140.485 17.7341C141.205 18.1826 141.777 18.786 142.2 19.5441C142.629 20.3022 142.844 21.1424 142.844 22.0648C142.844 22.7534 142.721 23.3978 142.475 23.9979C142.228 24.5981 141.887 25.1288 141.451 25.5899C141.022 26.0448 140.519 26.4017 139.944 26.6608C139.376 26.9198 138.763 27.0493 138.106 27.0493ZM138.106 24.7371C138.567 24.7371 138.981 24.6139 139.347 24.3675C139.714 24.1211 140.001 23.7958 140.21 23.3914C140.425 22.9871 140.532 22.5449 140.532 22.0648C140.532 21.572 140.421 21.1235 140.2 20.7191C139.986 20.3085 139.692 19.9831 139.319 19.7431C138.953 19.4967 138.548 19.3735 138.106 19.3735C137.651 19.3735 137.241 19.4967 136.874 19.7431C136.508 19.9895 136.217 20.318 136.002 20.7286C135.788 21.1392 135.68 21.5846 135.68 22.0648C135.68 22.5638 135.791 23.0156 136.012 23.4199C136.233 23.8242 136.527 24.1464 136.893 24.3865C137.266 24.6202 137.67 24.7371 138.106 24.7371Z" fill="white"/>
<path d="M129.568 17.3266H131.881V26.8029H129.568V17.3266ZM130.743 16.1042C130.402 16.1042 130.115 15.9936 129.881 15.7725C129.647 15.5451 129.531 15.2608 129.531 14.9196C129.531 14.5848 129.647 14.3037 129.881 14.0763C130.115 13.8488 130.399 13.7351 130.734 13.7351C131.069 13.7351 131.35 13.8488 131.577 14.0763C131.811 14.3037 131.928 14.5848 131.928 14.9196C131.928 15.2608 131.814 15.5451 131.587 15.7725C131.359 15.9936 131.078 16.1042 130.743 16.1042Z" fill="white"/>
<path d="M128.004 19.6391H126.165V26.8032H123.853V19.6391H122.45V17.3269H123.853V14.3513H126.165V17.3269H128.004V19.6391Z" fill="white"/>
<path d="M118.723 17.3266H121.036V26.8029H118.723L118.619 25.6279C118.36 26.0511 118.016 26.3954 117.586 26.6608C117.163 26.9198 116.661 27.0493 116.08 27.0493C115.378 27.0493 114.721 26.9166 114.109 26.6513C113.496 26.386 112.956 26.0195 112.488 25.552C112.027 25.0845 111.664 24.5444 111.398 23.9316C111.139 23.3188 111.01 22.6618 111.01 21.9605C111.01 21.2845 111.133 20.6496 111.379 20.0558C111.632 19.4619 111.983 18.9407 112.431 18.4922C112.88 18.0437 113.398 17.693 113.985 17.4403C114.573 17.1876 115.205 17.0613 115.881 17.0613C116.506 17.0613 117.065 17.2003 117.558 17.4782C118.057 17.7562 118.48 18.11 118.828 18.5396L118.723 17.3266ZM116.023 24.8224C116.515 24.8224 116.951 24.6992 117.33 24.4528C117.71 24.2064 118.006 23.8747 118.221 23.4578C118.436 23.0345 118.543 22.5702 118.543 22.0648C118.543 21.553 118.436 21.0887 118.221 20.6717C118.006 20.2485 117.706 19.9136 117.321 19.6673C116.942 19.4209 116.509 19.2977 116.023 19.2977C115.536 19.2977 115.091 19.424 114.687 19.6767C114.289 19.9231 113.97 20.2548 113.729 20.6717C113.496 21.0887 113.379 21.553 113.379 22.0648C113.379 22.5765 113.499 23.0408 113.739 23.4578C113.979 23.8747 114.298 24.2064 114.696 24.4528C115.1 24.6992 115.543 24.8224 116.023 24.8224Z" fill="white"/>
<path d="M107.138 12.5886H109.45V26.8031H107.138V25.6185C106.834 26.0418 106.452 26.3861 105.991 26.6514C105.53 26.9168 104.996 27.0495 104.39 27.0495C103.701 27.0495 103.057 26.9199 102.456 26.6609C101.856 26.4019 101.326 26.045 100.864 25.5901C100.41 25.1289 100.053 24.5982 99.7936 23.9981C99.5345 23.3979 99.405 22.7535 99.405 22.0649C99.405 21.3763 99.5345 20.7319 99.7936 20.1318C100.053 19.5316 100.41 19.0041 100.864 18.5492C101.326 18.088 101.856 17.7279 102.456 17.4689C103.057 17.2099 103.701 17.0804 104.39 17.0804C104.996 17.0804 105.53 17.2131 105.991 17.4784C106.452 17.7374 106.834 18.0817 107.138 18.5113V12.5886ZM104.418 24.8225C104.911 24.8225 105.347 24.6993 105.726 24.4529C106.105 24.2066 106.402 23.8749 106.616 23.4579C106.831 23.0347 106.939 22.5703 106.939 22.0649C106.939 21.5532 106.831 21.0889 106.616 20.6719C106.402 20.2486 106.102 19.9138 105.716 19.6674C105.337 19.421 104.904 19.2978 104.418 19.2978C103.932 19.2978 103.486 19.4242 103.082 19.6769C102.684 19.9233 102.365 20.2549 102.125 20.6719C101.891 21.0889 101.774 21.5532 101.774 22.0649C101.774 22.5766 101.894 23.041 102.134 23.4579C102.374 23.8749 102.693 24.2066 103.091 24.4529C103.496 24.6993 103.938 24.8225 104.418 24.8225Z" fill="white"/>
<path d="M98.2706 20.8139V26.8029H95.9584V21.4204C95.9584 21.0476 95.8668 20.7097 95.6836 20.4064C95.5004 20.0969 95.254 19.8536 94.9444 19.6767C94.6412 19.4935 94.3032 19.4019 93.9305 19.4019C93.5577 19.4019 93.2166 19.4935 92.907 19.6767C92.6038 19.8536 92.3606 20.0969 92.1774 20.4064C92.0005 20.7097 91.912 21.0476 91.912 21.4204V26.8029H89.5998L89.5903 17.3266H91.9025L91.912 18.17C92.2342 17.8289 92.6196 17.5604 93.0681 17.3645C93.5167 17.1624 94 17.0613 94.518 17.0613C95.2066 17.0613 95.8352 17.2319 96.4038 17.573C96.9724 17.9078 97.4241 18.3595 97.7589 18.9281C98.1 19.4904 98.2706 20.119 98.2706 20.8139Z" fill="white"/>
<path d="M79.0132 23.2967V17.3267H81.3254V22.6902C81.3254 23.063 81.417 23.4041 81.6002 23.7137C81.7834 24.0169 82.0266 24.2601 82.3299 24.4434C82.6394 24.6202 82.9774 24.7087 83.3439 24.7087C83.7229 24.7087 84.064 24.6202 84.3673 24.4434C84.6705 24.2601 84.9138 24.0169 85.097 23.7137C85.2802 23.4041 85.3718 23.063 85.3718 22.6902V17.3267H87.684L87.6935 26.803H85.3813L85.3718 25.9406C85.0433 26.2818 84.6547 26.5534 84.2062 26.7556C83.7576 26.9514 83.2775 27.0493 82.7658 27.0493C82.0772 27.0493 81.4486 26.8819 80.88 26.5471C80.3114 26.2059 79.8566 25.7542 79.5154 25.192C79.1806 24.6234 79.0132 23.9917 79.0132 23.2967Z" fill="white"/>
<path d="M73.3822 27.0493C72.5104 27.0493 71.7144 26.825 70.9942 26.3765C70.2803 25.9279 69.7085 25.3278 69.279 24.576C68.8557 23.8179 68.644 22.9808 68.644 22.0648C68.644 21.3698 68.7672 20.7223 69.0136 20.1221C69.26 19.5156 69.598 18.985 70.0276 18.5301C70.4635 18.0689 70.9689 17.7088 71.5438 17.4498C72.1187 17.1908 72.7315 17.0613 73.3822 17.0613C74.254 17.0613 75.0469 17.2856 75.7607 17.7341C76.4809 18.1826 77.0527 18.786 77.476 19.5441C77.9055 20.3022 78.1203 21.1424 78.1203 22.0648C78.1203 22.7534 77.9971 23.3978 77.7508 23.9979C77.5044 24.5981 77.1632 25.1288 76.7273 25.5899C76.2977 26.0448 75.7955 26.4017 75.2206 26.6608C74.652 26.9198 74.0392 27.0493 73.3822 27.0493ZM73.3822 24.7371C73.8434 24.7371 74.2572 24.6139 74.6236 24.3675C74.99 24.1211 75.2775 23.7958 75.4859 23.3914C75.7007 22.9871 75.8081 22.5449 75.8081 22.0648C75.8081 21.572 75.6976 21.1235 75.4765 20.7191C75.2617 20.3085 74.9679 19.9831 74.5952 19.7431C74.2287 19.4967 73.8244 19.3735 73.3822 19.3735C72.9273 19.3735 72.5167 19.4967 72.1503 19.7431C71.7839 19.9895 71.4932 20.318 71.2785 20.7286C71.0637 21.1392 70.9563 21.5846 70.9563 22.0648C70.9563 22.5638 71.0668 23.0156 71.2879 23.4199C71.509 23.8242 71.8028 24.1464 72.1692 24.3865C72.542 24.6202 72.9463 24.7371 73.3822 24.7371Z" fill="white"/>
<path d="M60.7544 26.8029V13.5361H68.5913V15.8483H63.0666V18.5396H67.6816V20.8518H63.0666V26.8029H60.7544Z" fill="white"/>
</svg>
