<svg width="140" height="45" viewBox="0 0 140 45" fill="none" xmlns="http://www.w3.org/2000/svg">
<path d="M133.315 40.26C132.395 40.26 131.555 40.0233 130.795 39.55C130.042 39.0766 129.438 38.44 128.985 37.64C128.538 36.84 128.315 35.9566 128.315 34.99C128.315 34.2633 128.445 33.5833 128.705 32.95C128.965 32.31 129.322 31.75 129.775 31.27C130.235 30.7833 130.768 30.4033 131.375 30.13C131.982 29.8566 132.628 29.72 133.315 29.72C134.108 29.72 134.832 29.89 135.485 30.23C136.145 30.57 136.702 31.0333 137.155 31.62C137.615 32.2066 137.942 32.87 138.135 33.61C138.335 34.35 138.368 35.12 138.235 35.92H131.295C131.382 36.2133 131.515 36.48 131.695 36.72C131.882 36.9533 132.108 37.14 132.375 37.28C132.648 37.42 132.962 37.4933 133.315 37.5C133.662 37.5066 133.982 37.4266 134.275 37.26C134.568 37.0933 134.818 36.87 135.025 36.59L137.845 37.24C137.438 38.1266 136.832 38.8533 136.025 39.42C135.218 39.98 134.315 40.26 133.315 40.26ZM131.195 33.88H135.445C135.358 33.5466 135.212 33.2466 135.005 32.98C134.798 32.7133 134.548 32.5033 134.255 32.35C133.968 32.1966 133.655 32.12 133.315 32.12C132.982 32.12 132.668 32.1966 132.375 32.35C132.088 32.5033 131.842 32.7133 131.635 32.98C131.435 33.24 131.288 33.54 131.195 33.88Z" fill="white"/>
<path d="M125.011 36.84L127.491 38.18C127.031 38.8066 126.454 39.31 125.761 39.69C125.067 40.07 124.311 40.26 123.491 40.26C122.571 40.26 121.731 40.0233 120.971 39.55C120.217 39.0766 119.614 38.4433 119.161 37.65C118.714 36.85 118.491 35.9666 118.491 35C118.491 34.2666 118.621 33.5833 118.881 32.95C119.141 32.31 119.497 31.75 119.951 31.27C120.411 30.7833 120.944 30.4033 121.551 30.13C122.157 29.8566 122.804 29.72 123.491 29.72C124.311 29.72 125.067 29.91 125.761 30.29C126.454 30.67 127.031 31.18 127.491 31.82L125.011 33.16C124.804 32.94 124.567 32.7733 124.301 32.66C124.041 32.54 123.771 32.48 123.491 32.48C123.064 32.48 122.681 32.5966 122.341 32.83C122.007 33.0633 121.741 33.3733 121.541 33.76C121.347 34.14 121.251 34.5533 121.251 35C121.251 35.44 121.351 35.85 121.551 36.23C121.751 36.61 122.017 36.9166 122.351 37.15C122.691 37.3833 123.071 37.5 123.491 37.5C123.777 37.5 124.051 37.44 124.311 37.32C124.571 37.2 124.804 37.04 125.011 36.84Z" fill="white"/>
<path d="M114.517 30H117.277V40H114.507L114.377 38.96C114.117 39.3466 113.783 39.66 113.377 39.9C112.97 40.14 112.493 40.26 111.947 40.26C111.2 40.26 110.503 40.12 109.857 39.84C109.21 39.56 108.64 39.1733 108.147 38.68C107.653 38.1866 107.267 37.6166 106.987 36.97C106.713 36.3166 106.577 35.6166 106.577 34.87C106.577 34.1566 106.707 33.49 106.967 32.87C107.227 32.25 107.593 31.7033 108.067 31.23C108.54 30.7566 109.083 30.3866 109.697 30.12C110.317 29.8533 110.983 29.72 111.697 29.72C112.31 29.72 112.86 29.85 113.347 30.11C113.84 30.37 114.27 30.7 114.637 31.1L114.517 30ZM111.877 37.61C112.33 37.61 112.74 37.4933 113.107 37.26C113.473 37.0266 113.763 36.7133 113.977 36.32C114.19 35.92 114.297 35.48 114.297 35C114.297 34.5133 114.19 34.0733 113.977 33.68C113.763 33.2866 113.473 32.9733 113.107 32.74C112.74 32.5066 112.33 32.39 111.877 32.39C111.417 32.39 111 32.5066 110.627 32.74C110.253 32.9733 109.957 33.29 109.737 33.69C109.517 34.0833 109.407 34.52 109.407 35C109.407 35.48 109.517 35.92 109.737 36.32C109.963 36.7133 110.263 37.0266 110.637 37.26C111.01 37.4933 111.423 37.61 111.877 37.61Z" fill="white"/>
<path d="M102.216 40V25H104.976V40H102.216Z" fill="white"/>
<path d="M92.9248 45H90.1648V30H92.9248V31.08C93.2448 30.6867 93.6248 30.3667 94.0648 30.12C94.5048 29.8667 95.0181 29.74 95.6048 29.74C96.3315 29.74 97.0115 29.8767 97.6448 30.15C98.2848 30.4233 98.8448 30.8033 99.3248 31.29C99.8048 31.77 100.181 32.3267 100.455 32.96C100.728 33.5933 100.865 34.2733 100.865 35C100.865 35.7267 100.728 36.41 100.455 37.05C100.181 37.69 99.8048 38.2533 99.3248 38.74C98.8448 39.22 98.2848 39.5967 97.6448 39.87C97.0115 40.1433 96.3315 40.28 95.6048 40.28C95.0181 40.28 94.5048 40.1533 94.0648 39.9C93.6248 39.6467 93.2448 39.3267 92.9248 38.94V45ZM95.5648 32.39C95.1115 32.39 94.7015 32.51 94.3348 32.75C93.9748 32.9833 93.6881 33.2967 93.4748 33.69C93.2681 34.0833 93.1648 34.52 93.1648 35C93.1648 35.48 93.2681 35.92 93.4748 36.32C93.6881 36.7133 93.9748 37.0267 94.3348 37.26C94.7015 37.4933 95.1115 37.61 95.5648 37.61C96.0181 37.61 96.4315 37.4933 96.8048 37.26C97.1848 37.0267 97.4848 36.7133 97.7048 36.32C97.9315 35.9267 98.0448 35.4867 98.0448 35C98.0448 34.5267 97.9348 34.0933 97.7148 33.7C97.4948 33.3 97.1948 32.9833 96.8148 32.75C96.4415 32.51 96.0248 32.39 95.5648 32.39Z" fill="white"/>
<path d="M88.6519 32.7601H86.8519V40.0001H84.0919V32.7601H82.7119V30.0001H84.0919V26.8601H86.8519V30.0001H88.6519V32.7601Z" fill="white"/>
<path d="M76.6353 40.26C75.7153 40.26 74.8753 40.0233 74.1153 39.55C73.3619 39.0766 72.7586 38.44 72.3053 37.64C71.8586 36.84 71.6353 35.9566 71.6353 34.99C71.6353 34.2633 71.7653 33.5833 72.0253 32.95C72.2853 32.31 72.6419 31.75 73.0953 31.27C73.5553 30.7833 74.0886 30.4033 74.6953 30.13C75.3019 29.8566 75.9486 29.72 76.6353 29.72C77.4286 29.72 78.1519 29.89 78.8053 30.23C79.4653 30.57 80.0219 31.0333 80.4753 31.62C80.9353 32.2066 81.2619 32.87 81.4553 33.61C81.6553 34.35 81.6886 35.12 81.5553 35.92H74.6153C74.7019 36.2133 74.8353 36.48 75.0153 36.72C75.2019 36.9533 75.4286 37.14 75.6953 37.28C75.9686 37.42 76.2819 37.4933 76.6353 37.5C76.9819 37.5066 77.3019 37.4266 77.5953 37.26C77.8886 37.0933 78.1386 36.87 78.3453 36.59L81.1653 37.24C80.7586 38.1266 80.1519 38.8533 79.3453 39.42C78.5386 39.98 77.6353 40.26 76.6353 40.26ZM74.5153 33.88H78.7653C78.6786 33.5466 78.5319 33.2466 78.3253 32.98C78.1186 32.7133 77.8686 32.5033 77.5753 32.35C77.2886 32.1966 76.9753 32.12 76.6353 32.12C76.3019 32.12 75.9886 32.1966 75.6953 32.35C75.4086 32.5033 75.1619 32.7133 74.9553 32.98C74.7553 33.24 74.6086 33.54 74.5153 33.88Z" fill="white"/>
<path d="M71.4175 40H68.2375L66.1175 36.35L64.8975 37.8V40H62.1375V30H64.8975V33.51L67.8375 30H71.4375L68.0075 34.11L71.4175 40Z" fill="white"/>
<path d="M54.5693 40L54.5593 30H57.3193L57.3293 30.74C57.6627 30.42 58.0527 30.17 58.4993 29.99C58.9527 29.81 59.4293 29.72 59.9293 29.72C60.296 29.72 60.6627 29.7733 61.0293 29.88L59.9393 32.67C59.6993 32.57 59.456 32.52 59.2093 32.52C58.8627 32.52 58.546 32.6033 58.2593 32.77C57.9727 32.9366 57.746 33.1633 57.5793 33.45C57.4127 33.73 57.3293 34.0466 57.3293 34.4V40H54.5693Z" fill="white"/>
<path d="M49.7901 30H52.5501V40H49.7801L49.6501 38.96C49.3901 39.3466 49.0568 39.66 48.6501 39.9C48.2434 40.14 47.7668 40.26 47.2201 40.26C46.4734 40.26 45.7768 40.12 45.1301 39.84C44.4834 39.56 43.9134 39.1733 43.4201 38.68C42.9268 38.1866 42.5401 37.6166 42.2601 36.97C41.9868 36.3166 41.8501 35.6166 41.8501 34.87C41.8501 34.1566 41.9801 33.49 42.2401 32.87C42.5001 32.25 42.8668 31.7033 43.3401 31.23C43.8134 30.7566 44.3568 30.3866 44.9701 30.12C45.5901 29.8533 46.2568 29.72 46.9701 29.72C47.5834 29.72 48.1334 29.85 48.6201 30.11C49.1134 30.37 49.5434 30.7 49.9101 31.1L49.7901 30ZM47.1501 37.61C47.6034 37.61 48.0134 37.4933 48.3801 37.26C48.7468 37.0266 49.0368 36.7133 49.2501 36.32C49.4634 35.92 49.5701 35.48 49.5701 35C49.5701 34.5133 49.4634 34.0733 49.2501 33.68C49.0368 33.2866 48.7468 32.9733 48.3801 32.74C48.0134 32.5066 47.6034 32.39 47.1501 32.39C46.6901 32.39 46.2734 32.5066 45.9001 32.74C45.5268 32.9733 45.2301 33.29 45.0101 33.69C44.7901 34.0833 44.6801 34.52 44.6801 35C44.6801 35.48 44.7901 35.92 45.0101 36.32C45.2368 36.7133 45.5368 37.0266 45.9101 37.26C46.2834 37.4933 46.6968 37.61 47.1501 37.61Z" fill="white"/>
<path d="M72.775 26.5785V20.2806C72.775 19.9657 72.425 19.457 72 19.457V19.3601H74.225C74.225 19.3601 74.2252 23.6082 74.225 26.5785C74.225 27.0629 74.7 27.4021 75 27.4021V27.4989H72.0102L72.0101 27.4021C72.15 27.4021 72.775 27.184 72.775 26.5785Z" fill="white"/>
<path d="M66.65 26.5786H66.45C66.45 26.7239 66.0377 27.2083 65.475 27.2083C64.775 27.2083 64.2 26.845 64.2 24.7376V19.554H65.05V19.3602L64.2 19.3602V17.4224H64C64 18.5124 63.225 19.3602 62 19.3602V19.554H62.75V24.7376C62.75 27.3537 64.2 27.499 65.075 27.499C66.275 27.499 66.65 26.7723 66.65 26.5786Z" fill="white"/>
<path d="M61.5002 20.0141C61.5002 19.7234 61.3002 19.3601 60.3252 19.3601C59.5585 19.3601 58.4335 19.9947 57.9002 21.0799V19.3601H55.7002V19.457C55.7002 19.457 56.4502 19.5539 56.4502 20.2806V26.5785C56.4502 27.1356 55.9002 27.4021 55.7002 27.4021L55.7002 27.4989H58.6752V27.4021C58.4752 27.4021 57.9002 27.184 57.9002 26.5785L57.9418 21.548C58.4752 19.9657 59.2834 19.8648 59.8502 19.7961C60.6252 19.7023 60.2752 20.5712 60.9502 20.5712C61.3252 20.5712 61.5002 20.3048 61.5002 20.0141Z" fill="white"/>
<path d="M48.4984 16.0659L48.625 16.405C48.625 16.405 44.9917 26.0457 44.7959 26.5786C44.6 27.1115 44.275 27.4022 43.75 27.4022V27.499H45.7V27.4022C45.075 27.4022 44.775 27.3295 45.075 26.5786L46.359 23.2358L46.415 23.0905L46.5506 22.7384L46.8025 22.0671L48.7751 16.6715L50.876 22.0671L51.149 22.7384L51.2841 23.0905L51.3399 23.2358C51.3399 23.2358 52.3978 25.7312 52.75 26.5786C53.1022 27.4259 52.45 27.4022 52.1 27.4022V27.499H55.4686V27.4022C54.775 27.4022 54.5908 27.2188 54.325 26.5786C54.0592 25.9384 49.9751 16.0659 49.9751 16.0659H48.4984Z" fill="white"/>
<path d="M51.2842 23.0903H46.4151L46.3591 23.2357H51.34L51.2842 23.0903Z" fill="white"/>
<path d="M70.2499 20.5712C70.6999 20.5712 70.6999 21.1041 70.6999 21.637H70.8499V19.3601L70.6999 19.3601C70.6999 19.893 70.6999 20.4259 70.2499 20.4259L68.5999 20.427V18.15C68.5999 16.9574 68.5249 16.3333 68.7999 15.8973C69.0794 15.3857 69.4999 15.2665 70.0249 15.2665C70.0999 15.2665 71.5057 15.3252 71.3249 16.2596C71.2499 16.6471 71.5249 16.9873 71.8999 16.9873C72.1999 16.9874 72.4999 16.7198 72.4999 16.4049C72.4999 15.7509 71.2499 15.1272 70.4999 15.0253C69.2499 14.8799 68.5249 15.3893 67.9749 15.8488C67.2249 16.6724 67.0999 17.3749 67.1419 19.407V20.8964C67.1419 20.8964 67.1749 26.3362 67.1749 26.5785C67.1749 27.0871 66.6749 27.402 66.3999 27.402L66.3999 27.5H69.3749L69.3749 27.402C69.1249 27.402 68.5999 27.1114 68.5999 26.5785V20.5723C68.5999 20.5723 69.6499 20.5712 70.2499 20.5712Z" fill="white"/>
<path d="M72.4502 17.9468C72.4502 18.4591 72.8298 18.8273 73.3648 18.8273C73.9515 18.8273 74.4002 18.363 74.4002 17.8508C74.4002 17.3545 74.0033 16.9863 73.4683 16.9863C72.8988 16.9863 72.4502 17.4506 72.4502 17.9468Z" fill="white"/>
<path d="M31.4209 36.6015L22.7346 23.304L22.4128 22.875H26.8096L31.4209 30.06L35.6032 22.875H40V40.2477H36.1394V29.4166L31.4209 36.6015Z" fill="white"/>
<path d="M36.4611 3.64611V15.7641H39.8928V0H0V39.8928H25.8445L23.6997 35.8177H3.75335V3.64611H36.4611Z" fill="white"/>
</svg>
