<svg width="157" height="35" viewBox="0 0 157 35" fill="none" xmlns="http://www.w3.org/2000/svg">
<path d="M61.8099 15.4126V7.02921C61.8099 6.61005 61.3441 5.93293 60.7783 5.93293V5.80396H63.7401C63.7401 5.80396 63.7403 11.4587 63.7401 15.4126C63.7401 16.0574 64.3724 16.5088 64.7717 16.5088V16.6378H60.7918L60.7918 16.5088C60.978 16.5088 61.8099 16.2186 61.8099 15.4126Z" fill="white"/>
<path d="M53.6566 15.4125H53.3903C53.3903 15.6059 52.8415 16.2508 52.0925 16.2508C51.1607 16.2508 50.3953 15.7671 50.3953 12.9619V6.0618H51.5267V5.80386L50.3953 5.80386V3.22437H50.1291C50.129 4.67532 49.0974 5.80386 47.4668 5.80386V6.0618H48.4651V12.9619C48.4651 16.4443 50.3953 16.6377 51.56 16.6377C53.1574 16.6377 53.6566 15.6704 53.6566 15.4125Z" fill="white"/>
<path d="M46.8016 6.67453C46.8016 6.28761 46.5354 5.80396 45.2375 5.80396C44.217 5.80396 42.7195 6.64874 42.0095 8.09325V5.80396H39.0811V5.93293C39.0811 5.93293 40.0794 6.0619 40.0794 7.02921V15.4126C40.0794 16.1542 39.3473 16.5088 39.0811 16.5088L39.0811 16.6378H43.0412V16.5088C42.7749 16.5088 42.0095 16.2186 42.0095 15.4126L42.065 8.71626C42.7749 6.61005 43.8508 6.47571 44.6052 6.38434C45.6369 6.2594 45.171 7.41614 46.0695 7.41614C46.5687 7.41614 46.8016 7.06146 46.8016 6.67453Z" fill="white"/>
<path d="M29.4946 1.4187L29.6631 1.87011C29.6631 1.87011 24.8268 14.7031 24.566 15.4124C24.3053 16.1218 23.8727 16.5087 23.1738 16.5087V16.6377H25.7695V16.5087C24.9376 16.5087 24.5382 16.412 24.9376 15.4124L26.6468 10.9628L26.7213 10.7694L26.9017 10.3007L27.2371 9.407L29.8628 2.22479L32.6595 9.407L33.0228 10.3007L33.2027 10.7694L33.277 10.9628C33.277 10.9628 34.6852 14.2845 35.154 15.4124C35.6228 16.5404 34.7547 16.5087 34.2888 16.5087V16.6377H38.7728V16.5087C37.8496 16.5087 37.6044 16.2646 37.2505 15.4124C36.8967 14.5602 31.4602 1.4187 31.4602 1.4187H29.4946Z" fill="white"/>
<path d="M33.2029 10.7693H26.7215L26.647 10.9627H33.2772L33.2029 10.7693Z" fill="white"/>
<path d="M58.4486 7.41604C59.0476 7.41604 59.0476 8.12539 59.0476 8.83475H59.2473V5.80385L59.0476 5.80385C59.0476 6.51321 59.0476 7.22257 58.4486 7.22257L56.2522 7.22402V4.1931C56.2522 2.6056 56.1524 1.77478 56.5185 1.1944C56.8905 0.513385 57.4502 0.35468 58.1491 0.35468C58.2489 0.35468 60.1202 0.432879 59.8796 1.67667C59.7797 2.19257 60.1458 2.64535 60.645 2.64542C61.0443 2.64547 61.4436 2.2893 61.4436 1.87013C61.4436 0.999553 59.7797 0.169385 58.7814 0.0336218C57.1175 -0.159831 56.1524 0.518155 55.4203 1.12991C54.4219 2.2262 54.2555 3.16126 54.3114 5.86628V7.84882C54.3114 7.84882 54.3554 15.09 54.3554 15.4125C54.3554 16.0896 53.6898 16.5087 53.3237 16.5087L53.3237 16.6391H57.2839L57.2839 16.5087C56.9511 16.5087 56.2522 16.1218 56.2522 15.4125V7.41748C56.2522 7.41748 57.6499 7.41604 58.4486 7.41604Z" fill="white"/>
<path d="M61.3774 3.92257C61.3774 4.60446 61.8828 5.09456 62.5949 5.09456C63.3759 5.09456 63.9731 4.4766 63.9731 3.79472C63.9731 3.13415 63.4448 2.64404 62.7327 2.64404C61.9747 2.64404 61.3774 3.262 61.3774 3.92257Z" fill="white"/>
<path d="M157 22.3553H153.742L153.728 34.0785H151.82L151.834 22.3553H149.366V20.4468H151.834L151.82 16.1665H153.728L153.742 20.4468H157V22.3553Z" fill="white"/>
<path d="M141.176 34.4334C139.922 34.4334 138.777 34.1108 137.741 33.4656C136.714 32.8203 135.891 31.957 135.273 30.8756C134.664 29.785 134.36 28.5809 134.36 27.2632C134.36 26.2635 134.537 25.332 134.891 24.4687C135.246 23.5963 135.732 22.8329 136.35 22.1786C136.977 21.5152 137.704 20.9972 138.531 20.6246C139.358 20.252 140.24 20.0657 141.176 20.0657C142.184 20.0657 143.111 20.2656 143.957 20.6655C144.811 21.0653 145.542 21.6242 146.151 22.3422C146.769 23.0601 147.233 23.9007 147.542 24.864C147.86 25.8273 147.992 26.8679 147.937 27.9857H136.377C136.486 28.849 136.759 29.6215 137.195 30.303C137.641 30.9846 138.204 31.5253 138.886 31.9252C139.576 32.316 140.34 32.5159 141.176 32.525C142.084 32.525 142.902 32.2887 143.629 31.8161C144.365 31.3436 144.956 30.6938 145.401 29.8668L147.337 30.3167C146.792 31.5253 145.969 32.5159 144.87 33.2884C143.77 34.0517 142.539 34.4334 141.176 34.4334ZM136.323 26.4453H146.015C145.951 25.6001 145.692 24.8277 145.238 24.1279C144.793 23.4191 144.216 22.8556 143.507 22.4376C142.798 22.0105 142.021 21.7969 141.176 21.7969C140.331 21.7969 139.558 22.0059 138.858 22.4239C138.159 22.8329 137.586 23.3918 137.141 24.1006C136.695 24.8004 136.423 25.5819 136.323 26.4453Z" fill="white"/>
<path d="M133.471 34.0786H131.276L127.459 27.4945L124.733 30.7524V34.0786H122.824V13.6311H124.733V27.7807L130.881 20.4469H133.375L128.754 25.9405L133.471 34.0786Z" fill="white"/>
<path d="M113.399 34.079V20.4474H115.308V22.3285C115.789 21.6379 116.417 21.088 117.189 20.6791C117.961 20.2701 118.802 20.0657 119.711 20.0657C120.238 20.0657 120.747 20.1338 121.238 20.2701L120.461 22.1649C120.079 22.0468 119.706 21.9877 119.343 21.9877C118.607 21.9877 117.93 22.1695 117.312 22.533C116.703 22.8965 116.217 23.3827 115.853 23.9916C115.49 24.6005 115.308 25.2775 115.308 26.0227V34.079H113.399Z" fill="white"/>
<path d="M108.763 20.4474H110.672V34.079H108.763L108.695 31.5435C108.25 32.4069 107.627 33.1066 106.828 33.6428C106.028 34.1699 105.074 34.4334 103.965 34.4334C102.965 34.4334 102.029 34.2471 101.157 33.8745C100.284 33.4928 99.5165 32.9703 98.8531 32.3069C98.1897 31.6435 97.6717 30.8756 97.2991 30.0031C96.9265 29.1307 96.7402 28.1947 96.7402 27.195C96.7402 26.2135 96.922 25.2911 97.2855 24.4278C97.6581 23.5645 98.167 22.8056 98.8122 22.1513C99.4666 21.497 100.221 20.9881 101.075 20.6246C101.938 20.252 102.861 20.0657 103.842 20.0657C104.978 20.0657 105.969 20.3383 106.814 20.8836C107.659 21.4197 108.332 22.1241 108.832 22.9965L108.763 20.4474ZM103.924 32.5795C104.897 32.5795 105.733 32.3432 106.432 31.8707C107.132 31.389 107.668 30.7438 108.041 29.935C108.423 29.1262 108.613 28.2356 108.613 27.2632C108.613 26.2635 108.423 25.3638 108.041 24.5641C107.659 23.7553 107.118 23.1146 106.419 22.6421C105.719 22.1695 104.887 21.9332 103.924 21.9332C102.961 21.9332 102.079 22.174 101.28 22.6557C100.489 23.1282 99.8573 23.7689 99.3848 24.5777C98.9213 25.3866 98.6896 26.2817 98.6896 27.2632C98.6896 28.2537 98.9304 29.1534 99.412 29.9622C99.8937 30.762 100.53 31.3981 101.32 31.8707C102.12 32.3432 102.988 32.5795 103.924 32.5795Z" fill="white"/>
<path d="M62.1283 34.4334C60.8742 34.4334 59.7292 34.1108 58.6932 33.4656C57.6662 32.8203 56.8438 31.957 56.2258 30.8756C55.6169 29.785 55.3125 28.5809 55.3125 27.2632C55.3125 26.2635 55.4897 25.332 55.8441 24.4687C56.1986 23.5963 56.6848 22.8329 57.3027 22.1786C57.9298 21.5152 58.6568 20.9972 59.4838 20.6246C60.3108 20.252 61.1923 20.0657 62.1283 20.0657C63.1371 20.0657 64.064 20.2656 64.9092 20.6655C65.7634 21.0653 66.495 21.6242 67.1039 22.3422C67.7218 23.0601 68.1853 23.9007 68.4943 24.864C68.8124 25.8273 68.9441 26.8679 68.8896 27.9857H57.33C57.439 28.849 57.7117 29.6215 58.1479 30.303C58.5932 30.9846 59.1566 31.5253 59.8382 31.9252C60.5289 32.316 61.2922 32.5159 62.1283 32.525C63.0371 32.525 63.855 32.2887 64.582 31.8161C65.3181 31.3436 65.9088 30.6938 66.3541 29.8668L68.2898 30.3167C67.7446 31.5253 66.9221 32.5159 65.8225 33.2884C64.7229 34.0517 63.4915 34.4334 62.1283 34.4334ZM57.2755 26.4453H66.9676C66.9039 25.6001 66.6449 24.8277 66.1906 24.1279C65.7453 23.4191 65.1682 22.8556 64.4593 22.4376C63.7505 22.0105 62.9735 21.7969 62.1283 21.7969C61.2832 21.7969 60.5107 22.0059 59.8109 22.4239C59.1112 22.8329 58.5387 23.3918 58.0934 24.1006C57.6481 24.8004 57.3754 25.5819 57.2755 26.4453Z" fill="white"/>
<path d="M47.2905 34.079V20.4474H49.199V22.3285C49.6806 21.6379 50.3077 21.088 51.0801 20.6791C51.8526 20.2701 52.6932 20.0657 53.602 20.0657C54.1291 20.0657 54.638 20.1338 55.1287 20.2701L54.3517 22.1649C53.97 22.0468 53.5974 21.9877 53.2339 21.9877C52.4978 21.9877 51.8208 22.1695 51.2028 22.533C50.5939 22.8965 50.1077 23.3827 49.7442 23.9916C49.3807 24.6005 49.199 25.2775 49.199 26.0227V34.079H47.2905Z" fill="white"/>
<path d="M42.6549 20.4474H44.5634V34.079H42.6549L42.5868 31.5435C42.1415 32.4069 41.519 33.1066 40.7193 33.6428C39.9195 34.1699 38.9653 34.4334 37.8566 34.4334C36.857 34.4334 35.9209 34.2471 35.0485 33.8745C34.1761 33.4928 33.4081 32.9703 32.7447 32.3069C32.0813 31.6435 31.5633 30.8756 31.1907 30.0031C30.8181 29.1307 30.6318 28.1947 30.6318 27.195C30.6318 26.2135 30.8136 25.2911 31.1771 24.4278C31.5497 23.5645 32.0586 22.8056 32.7038 22.1513C33.3582 21.497 34.1124 20.9881 34.9667 20.6246C35.83 20.252 36.7524 20.0657 37.7339 20.0657C38.8699 20.0657 39.8605 20.3383 40.7056 20.8836C41.5508 21.4197 42.2233 22.1241 42.7231 22.9965L42.6549 20.4474ZM37.8157 32.5795C38.7881 32.5795 39.6242 32.3432 40.3239 31.8707C41.0237 31.389 41.5599 30.7438 41.9325 29.935C42.3142 29.1262 42.505 28.2356 42.505 27.2632C42.505 26.2635 42.3142 25.3638 41.9325 24.5641C41.5508 23.7553 41.0101 23.1146 40.3103 22.6421C39.6105 22.1695 38.779 21.9332 37.8157 21.9332C36.8524 21.9332 35.9709 22.174 35.1712 22.6557C34.3805 23.1282 33.7489 23.7689 33.2764 24.5777C32.8129 25.3866 32.5812 26.2817 32.5812 27.2632C32.5812 28.2537 32.822 29.1534 33.3036 29.9622C33.7853 30.762 34.4214 31.3981 35.2121 31.8707C36.0118 32.3432 36.8797 32.5795 37.8157 32.5795Z" fill="white"/>
<path d="M28.9864 25.6406V34.0786H27.078V26.0223C27.078 25.2771 26.8962 24.6 26.5327 23.9912C26.1692 23.3823 25.683 22.8961 25.0741 22.5326C24.4652 22.1691 23.7882 21.9873 23.043 21.9873C22.3069 21.9873 21.6299 22.1691 21.0119 22.5326C20.403 22.8961 19.9168 23.3823 19.5533 23.9912C19.1898 24.6 19.008 25.2771 19.008 26.0223V34.0786H17.0996V13.6311H19.008V22.3281C19.4897 21.6374 20.1167 21.0876 20.8892 20.6787C21.6617 20.2697 22.5023 20.0652 23.4111 20.0652C24.438 20.0652 25.374 20.3152 26.2192 20.815C27.0643 21.3148 27.7368 21.9873 28.2367 22.8325C28.7365 23.6776 28.9864 24.6137 28.9864 25.6406Z" fill="white"/>
<path d="M6.93851 34.433C5.92068 34.433 4.93465 34.274 3.98044 33.9559C3.03531 33.6378 2.20833 33.1834 1.49948 32.5927C0.790635 32.002 0.290808 31.2977 0 30.4798L1.78574 29.8119C1.98568 30.3753 2.34919 30.8615 2.87628 31.2705C3.41245 31.6703 4.03497 31.9793 4.74381 32.1974C5.46174 32.4155 6.19331 32.5246 6.93851 32.5246C7.81093 32.5246 8.62429 32.3792 9.37857 32.0884C10.1329 31.7975 10.7417 31.3931 11.2052 30.8751C11.6687 30.348 11.9004 29.7301 11.9004 29.0212C11.9004 28.3033 11.6596 27.7126 11.1779 27.2491C10.6963 26.7856 10.0738 26.4221 9.31041 26.1586C8.55613 25.886 7.76549 25.6769 6.93851 25.5315C5.63896 25.3043 4.47118 24.9954 3.43517 24.6046C2.40826 24.2138 1.5949 23.664 0.99511 22.9552C0.395318 22.2372 0.0954216 21.2921 0.0954216 20.1198C0.0954216 19.0202 0.413493 18.0659 1.04964 17.2571C1.68578 16.4483 2.52185 15.8213 3.55786 15.376C4.60295 14.9307 5.72983 14.708 6.93851 14.708C7.92907 14.708 8.89692 14.8625 9.84204 15.1715C10.7872 15.4805 11.6187 15.9303 12.3366 16.521C13.0637 17.1117 13.5862 17.8342 13.9043 18.6884L12.0913 19.3428C11.8913 18.7702 11.5233 18.284 10.9871 17.8842C10.46 17.4752 9.84204 17.1662 9.1332 16.9572C8.42435 16.7391 7.69279 16.6301 6.93851 16.6301C6.07517 16.621 5.26636 16.7664 4.51207 17.0663C3.76688 17.3571 3.16254 17.766 2.69906 18.2931C2.23559 18.8111 2.00385 19.42 2.00385 20.1198C2.00385 20.9377 2.21741 21.5693 2.64454 22.0146C3.08075 22.4508 3.67146 22.7779 4.41665 22.996C5.16185 23.2142 6.00247 23.4095 6.93851 23.5822C8.15627 23.7912 9.28769 24.1184 10.3328 24.5637C11.3779 24.9999 12.2185 25.5861 12.8546 26.3222C13.4908 27.0492 13.8089 27.9489 13.8089 29.0212C13.8089 30.1118 13.4908 31.066 12.8546 31.8839C12.2185 32.6927 11.3779 33.3197 10.3328 33.765C9.29678 34.2103 8.16535 34.433 6.93851 34.433Z" fill="white"/>
<path d="M83.79 27.0325L83.79 34.079L82.0787 34.079L82.0787 27.0325L83.79 27.0325Z" fill="white"/>
<path d="M87.2129 24.6096L87.2129 34.0784L85.5015 34.0784L85.5015 24.6096L87.2129 24.6096Z" fill="white"/>
<path d="M90.6353 22.1877L90.6353 34.0787L88.9239 34.0787L88.9239 22.1877L90.6353 22.1877Z" fill="white"/>
<path d="M94.0581 19.7654L94.0581 34.0786L92.3467 34.0786L92.3467 19.7654L94.0581 19.7654Z" fill="white"/>
<path d="M81.8345 27.0325L81.8345 34.079L83.5458 34.079L83.5458 27.0325L81.8345 27.0325Z" fill="white"/>
<path d="M78.4111 24.6096L78.4111 34.0784L80.1225 34.0784L80.1225 24.6096L78.4111 24.6096Z" fill="white"/>
<path d="M74.9888 22.1877L74.9888 34.0787L76.7001 34.0787L76.7001 22.1877L74.9888 22.1877Z" fill="white"/>
<path d="M71.5659 19.7654L71.5659 34.0786L73.2773 34.0786L73.2773 19.7654L71.5659 19.7654Z" fill="white"/>
</svg>
