<svg width="153" height="41" viewBox="0 0 153 41" fill="none" xmlns="http://www.w3.org/2000/svg">
<path d="M143.718 34.3326C142.011 34.3326 140.451 33.8932 139.04 33.0146C137.642 32.1359 136.522 30.954 135.68 29.4689C134.851 27.9838 134.437 26.344 134.437 24.5495C134.437 23.2005 134.678 21.9382 135.161 20.7625C135.643 19.5744 136.305 18.5348 137.147 17.6437C138.001 16.7403 138.991 16.0349 140.117 15.5275C141.243 15.0201 142.444 14.7664 143.718 14.7664C145.191 14.7664 146.534 15.0819 147.747 15.7131C148.972 16.3443 150.005 17.2044 150.847 18.2935C151.701 19.3825 152.307 20.6139 152.666 21.9877C153.037 23.3614 153.099 24.7908 152.852 26.2759H139.969C140.129 26.8204 140.377 27.3155 140.711 27.761C141.058 28.1942 141.478 28.5407 141.973 28.8006C142.481 29.0605 143.062 29.1966 143.718 29.209C144.362 29.2214 144.956 29.0728 145.501 28.7634C146.045 28.454 146.509 28.0395 146.893 27.5197L152.128 28.7263C151.373 30.3723 150.247 31.7213 148.749 32.7732C147.252 33.8128 145.575 34.3326 143.718 34.3326ZM139.783 22.4889H147.672C147.512 21.8701 147.239 21.3132 146.856 20.8181C146.472 20.3231 146.008 19.9333 145.463 19.6486C144.931 19.364 144.35 19.2217 143.718 19.2217C143.1 19.2217 142.518 19.364 141.973 19.6486C141.441 19.9333 140.983 20.3231 140.6 20.8181C140.228 21.3008 139.956 21.8577 139.783 22.4889Z" fill="#322D29"/>
<path d="M123.734 33.8499L123.715 15.2861H128.839L128.857 16.6599C129.476 16.0658 130.2 15.6017 131.029 15.2676C131.871 14.9334 132.756 14.7664 133.684 14.7664C134.365 14.7664 135.045 14.8654 135.726 15.0634L133.703 20.2427C133.257 20.057 132.805 19.9642 132.347 19.9642C131.704 19.9642 131.116 20.1189 130.584 20.4283C130.052 20.7377 129.631 21.1585 129.322 21.6906C129.012 22.2104 128.857 22.7983 128.857 23.4542V33.8499H123.734Z" fill="#322D29"/>
<path d="M116.187 15.2861H121.311V33.8499H116.169L115.927 31.9193C115.445 32.6371 114.826 33.2188 114.071 33.6643C113.316 34.1098 112.431 34.3326 111.416 34.3326C110.03 34.3326 108.737 34.0727 107.536 33.5529C106.336 33.0331 105.278 32.3153 104.362 31.3995C103.446 30.4837 102.728 29.4256 102.209 28.2251C101.701 27.0123 101.448 25.7128 101.448 24.3267C101.448 23.0025 101.689 21.7649 102.171 20.6139C102.654 19.463 103.335 18.4482 104.214 17.5695C105.092 16.6908 106.101 16.0039 107.239 15.5089C108.39 15.0139 109.628 14.7664 110.952 14.7664C112.091 14.7664 113.112 15.0077 114.015 15.4903C114.931 15.973 115.729 16.5856 116.41 17.3282L116.187 15.2861ZM111.286 29.4132C112.128 29.4132 112.889 29.1966 113.57 28.7634C114.25 28.3303 114.789 27.7486 115.185 27.0184C115.581 26.2759 115.779 25.4591 115.779 24.568C115.779 23.6646 115.581 22.8478 115.185 22.1176C114.789 21.3874 114.25 20.8058 113.57 20.3726C112.889 19.9395 112.128 19.7229 111.286 19.7229C110.432 19.7229 109.659 19.9395 108.966 20.3726C108.273 20.8058 107.722 21.3936 107.314 22.1362C106.905 22.8664 106.701 23.677 106.701 24.568C106.701 25.4591 106.905 26.2759 107.314 27.0184C107.734 27.7486 108.291 28.3303 108.984 28.7634C109.677 29.1966 110.445 29.4132 111.286 29.4132Z" fill="#322D29"/>
<path d="M100.539 22.0433V33.8498H95.4156V23.4541C95.4156 22.7982 95.2547 22.2103 94.9329 21.6905C94.6235 21.1584 94.2028 20.7376 93.6706 20.4282C93.1508 20.1188 92.5692 19.9641 91.9256 19.9641C91.2821 19.9641 90.6942 20.1188 90.1621 20.4282C89.6299 20.7376 89.2091 21.1584 88.8997 21.6905C88.5903 22.2103 88.4356 22.7982 88.4356 23.4541V33.8498H83.312L83.2935 6.00415H88.4171L88.4356 16.6598C89.0544 16.0657 89.7784 15.6016 90.6076 15.2675C91.4491 14.9333 92.334 14.7663 93.2622 14.7663C94.6112 14.7663 95.8302 15.0942 96.9193 15.7501C98.0207 16.4061 98.8994 17.2847 99.5553 18.3862C100.211 19.4753 100.539 20.6943 100.539 22.0433Z" fill="#322D29"/>
<path d="M71.7736 34.3047C70.3133 34.3047 68.9148 34.0757 67.5782 33.6178C66.254 33.1599 65.0906 32.4978 64.0882 31.6315C63.0981 30.7652 62.3865 29.738 61.9534 28.5499L66.7614 26.7678C66.9099 27.1886 67.2193 27.5846 67.6896 27.9559C68.1599 28.3148 68.7477 28.6118 69.4531 28.8469C70.1586 29.0697 70.932 29.1811 71.7736 29.1811C72.578 29.1811 73.333 29.0635 74.0384 28.8284C74.7562 28.5809 75.3317 28.2405 75.7648 27.8074C76.2104 27.3742 76.4331 26.8668 76.4331 26.2851C76.4331 25.7035 76.2042 25.2208 75.7463 24.8372C75.2884 24.4535 74.7005 24.1503 73.9827 23.9275C73.2649 23.6924 72.5285 23.513 71.7736 23.3892C69.9049 23.1169 68.2279 22.6776 66.7428 22.0712C65.2701 21.4524 64.1068 20.6046 63.2528 19.5279C62.3989 18.4389 61.9719 17.0589 61.9719 15.3882C61.9719 13.7793 62.4237 12.3747 63.3271 11.1742C64.2429 9.97377 65.4434 9.03939 66.9285 8.3711C68.4259 7.7028 70.041 7.36865 71.7736 7.36865C73.2092 7.36865 74.5953 7.59761 75.9319 8.05551C77.2685 8.51342 78.4318 9.17553 79.4219 10.0418C80.4243 10.9081 81.1421 11.9477 81.5753 13.1606L76.7673 14.9055C76.6188 14.4848 76.3094 14.0949 75.8391 13.736C75.3688 13.3771 74.7809 13.0863 74.0755 12.8635C73.3701 12.6408 72.6028 12.5294 71.7736 12.5294C70.9816 12.517 70.2266 12.6346 69.5088 12.8821C68.8034 13.1296 68.2217 13.4699 67.7638 13.9031C67.3183 14.3363 67.0955 14.8313 67.0955 15.3882C67.0955 16.1184 67.3059 16.6691 67.7267 17.0404C68.1599 17.4117 68.7291 17.6777 69.4346 17.8386C70.14 17.9995 70.9197 18.1418 71.7736 18.2656C73.531 18.5255 75.1522 18.9896 76.6373 19.6579C78.1224 20.3138 79.3105 21.1925 80.2016 22.2939C81.105 23.383 81.5567 24.7134 81.5567 26.2851C81.5567 27.894 81.105 29.2987 80.2016 30.4991C79.2981 31.6996 78.1039 32.634 76.6188 33.3022C75.1337 33.9705 73.5186 34.3047 71.7736 34.3047Z" fill="#322D29"/>
<path d="M121.477 11.2244V5.11912C121.477 4.81386 121.137 4.32073 120.725 4.32073V4.22681H122.882C122.882 4.22681 122.882 8.34498 122.882 11.2244C122.882 11.6941 123.343 12.0228 123.634 12.0228V12.1167H120.735L120.735 12.0228C120.871 12.0228 121.477 11.8115 121.477 11.2244Z" fill="#322D29"/>
<path d="M115.539 11.2243H115.345C115.345 11.3652 114.945 11.8349 114.4 11.8349C113.721 11.8349 113.164 11.4826 113.164 9.43969V4.41456H113.988V4.2267L113.164 4.2267V2.34814H112.97C112.97 3.40483 112.219 4.2267 111.031 4.2267V4.41456H111.758V9.43969C111.758 11.9757 113.164 12.1166 114.012 12.1166C115.176 12.1166 115.539 11.4122 115.539 11.2243Z" fill="#322D29"/>
<path d="M110.546 4.86082C110.546 4.57904 110.353 4.22681 109.407 4.22681C108.664 4.22681 107.574 4.84203 107.057 5.89402V4.22681H104.924V4.32073C104.924 4.32073 105.651 4.41466 105.651 5.11912V11.2244C105.651 11.7645 105.118 12.0228 104.924 12.0228L104.924 12.1167H107.808V12.0228C107.614 12.0228 107.057 11.8115 107.057 11.2244L107.097 6.34774C107.614 4.81386 108.397 4.71603 108.947 4.64948C109.698 4.55849 109.359 5.4009 110.013 5.4009C110.377 5.4009 110.546 5.1426 110.546 4.86082Z" fill="#322D29"/>
<path d="M97.9426 1.0332L98.0653 1.36195C98.0653 1.36195 94.5431 10.7078 94.3532 11.2244C94.1634 11.741 93.8483 12.0228 93.3394 12.0228V12.1167H95.2297V12.0228C94.6238 12.0228 94.333 11.9523 94.6238 11.2244L95.8686 7.98386L95.9228 7.84297L96.0543 7.50163L96.2985 6.85081L98.2107 1.62025L100.247 6.85081L100.512 7.50163L100.643 7.84297L100.697 7.98386C100.697 7.98386 101.723 10.4029 102.064 11.2244C102.406 12.0458 101.773 12.0228 101.434 12.0228V12.1167H104.7V12.0228C104.027 12.0228 103.849 11.845 103.591 11.2244C103.333 10.6037 99.374 1.0332 99.374 1.0332H97.9426Z" fill="#322D29"/>
<path d="M100.643 7.84302H95.9229L95.8687 7.98391H100.697L100.643 7.84302Z" fill="#322D29"/>
<path d="M119.029 5.40085C119.465 5.40085 119.465 5.91745 119.465 6.43405H119.611V4.22675L119.465 4.22675C119.465 4.74335 119.465 5.25996 119.029 5.25996L117.429 5.26101V3.05369C117.429 1.89757 117.357 1.29252 117.623 0.869841C117.894 0.373881 118.302 0.258301 118.811 0.258301C118.883 0.258301 120.246 0.315251 120.071 1.22106C119.998 1.59677 120.265 1.92652 120.628 1.92657C120.919 1.92661 121.21 1.66722 121.21 1.36195C121.21 0.72794 119.998 0.123357 119.271 0.0244856C118.059 -0.116399 117.357 0.377355 116.823 0.822877C116.096 1.62126 115.975 2.30224 116.016 4.27222V5.71603C116.016 5.71603 116.048 10.9896 116.048 11.2244C116.048 11.7175 115.563 12.0228 115.297 12.0228L115.297 12.1177H118.181L118.181 12.0228C117.938 12.0228 117.429 11.741 117.429 11.2244V5.4019C117.429 5.4019 118.447 5.40085 119.029 5.40085Z" fill="#322D29"/>
<path d="M121.162 2.85665C121.162 3.35324 121.53 3.71017 122.048 3.71017C122.617 3.71017 123.052 3.26013 123.052 2.76354C123.052 2.28246 122.667 1.92554 122.149 1.92554C121.597 1.92554 121.162 2.37557 121.162 2.85665Z" fill="#322D29"/>
<path d="M41.4842 34.6611C41.4842 30.6076 39.874 26.7201 37.0078 23.8539C34.1415 20.9877 30.2541 19.3774 26.2006 19.3774C22.1471 19.3774 18.2597 20.9877 15.3935 23.8539C12.5272 26.7201 10.917 30.6076 10.917 34.6611L14.7252 34.6611C14.7252 31.6176 15.9342 28.6988 18.0863 26.5467C20.2383 24.3946 23.1571 23.1856 26.2006 23.1856C29.2441 23.1856 32.1629 24.3946 34.315 26.5467C36.467 28.6988 37.676 31.6176 37.676 34.6611H41.4842Z" fill="#72383D"/>
<path d="M48.3071 34.9339C48.3071 31.0332 47.2382 27.2056 45.2143 23.8589C43.1903 20.5121 40.2872 17.7716 36.8141 15.9294C33.3411 14.0871 29.4282 13.212 25.4925 13.3974C21.5567 13.5828 17.7455 14.8217 14.4648 16.9822L16.3802 19.8326C19.14 18.0152 22.346 16.973 25.6569 16.8171C28.9677 16.6611 32.2592 17.3972 35.1808 18.947C38.1024 20.4967 40.5446 22.8021 42.2471 25.6174C43.9497 28.4327 44.8489 31.6526 44.8489 34.9339H48.3071Z" fill="#72383D"/>
<path d="M55.1302 35.7528C55.1302 28.7343 52.553 21.9614 47.8901 16.7263C43.2273 11.4912 36.8052 8.16023 29.8491 7.3689L29.4756 10.6692C35.6229 11.3685 41.2982 14.3122 45.4189 18.9386C49.5396 23.565 51.8172 29.5503 51.8172 35.7528H55.1302Z" fill="#72383D"/>
<rect y="34.6611" width="59.224" height="6.00428" fill="#D7D0C4"/>
</svg>
