<svg width="153" height="36" viewBox="0 0 153 36" fill="none" xmlns="http://www.w3.org/2000/svg">
<g id="Frame 48098606">
<g id="Group 17">
<g id="Group 19">
<path id="Vector" d="M14.9773 2.97168L30.0008 35.3301H24.0145L21.3995 35.33H8.19201L5.9863 35.3301H0L14.9773 2.97168ZM0 35.3301L14.7958 35.33L14.9773 6.84822L0 35.3301Z" fill="white"/>
<g id="rtinals">
<path id="Vector_2" d="M144.055 35.1084C142.807 35.0622 141.59 34.831 140.403 34.415C139.232 33.9835 138.2 33.4057 137.306 32.6815C136.428 31.9419 135.789 31.0944 135.388 30.1391L138.716 28.706C138.947 29.2299 139.363 29.723 139.964 30.1853C140.565 30.6475 141.259 31.0174 142.045 31.2947C142.83 31.5721 143.624 31.7108 144.425 31.7108C145.273 31.7108 146.066 31.5798 146.806 31.3178C147.545 31.0559 148.146 30.6707 148.609 30.1622C149.086 29.6383 149.325 29.0142 149.325 28.29C149.325 27.5196 149.063 26.9186 148.539 26.4872C148.031 26.0403 147.384 25.6936 146.598 25.4471C145.827 25.1851 145.042 24.9386 144.24 24.7075C142.653 24.3068 141.236 23.8292 139.987 23.2745C138.739 22.7043 137.753 21.9878 137.029 21.1249C136.32 20.2466 135.966 19.1295 135.966 17.7735C135.966 16.3405 136.359 15.1001 137.145 14.0523C137.946 13.0045 138.994 12.1956 140.288 11.6255C141.582 11.0553 142.969 10.7703 144.448 10.7703C146.313 10.7703 148.015 11.1709 149.556 11.9721C151.097 12.7734 152.245 13.8597 153 15.2311L149.88 17.057C149.618 16.5023 149.217 16.0169 148.678 15.6009C148.139 15.1695 147.522 14.8305 146.829 14.5839C146.136 14.3374 145.427 14.2064 144.703 14.191C143.809 14.1602 142.969 14.2758 142.183 14.5377C141.413 14.7997 140.789 15.2003 140.311 15.7396C139.849 16.2635 139.618 16.9184 139.618 17.7042C139.618 18.4746 139.864 19.0602 140.357 19.4608C140.866 19.8614 141.521 20.185 142.322 20.4315C143.139 20.6627 144.025 20.9323 144.98 21.2405C146.382 21.6874 147.692 22.2036 148.909 22.7891C150.126 23.3746 151.105 24.1065 151.844 24.9848C152.6 25.8631 152.969 26.9494 152.954 28.2438C152.954 29.6614 152.53 30.9018 151.683 31.965C150.835 33.0128 149.733 33.814 148.378 34.3688C147.037 34.9235 145.596 35.17 144.055 35.1084Z" fill="white"/>
<path id="Vector_3" d="M127.571 34.6692V-0.000488281H131.454V34.6692H127.571Z" fill="white"/>
<path id="Vector_4" d="M118.797 11.5561H122.68V34.6692H118.797L118.635 30.7631C117.911 32.1037 116.91 33.19 115.631 34.0221C114.367 34.8541 112.857 35.2702 111.1 35.2702C109.406 35.2702 107.818 34.9543 106.339 34.3225C104.86 33.6754 103.55 32.7894 102.41 31.6645C101.285 30.5243 100.407 29.2145 99.775 27.7353C99.1433 26.256 98.8274 24.6612 98.8274 22.9509C98.8274 21.3021 99.1356 19.7459 99.7519 18.282C100.368 16.8182 101.223 15.5393 102.317 14.4452C103.427 13.3358 104.706 12.4729 106.154 11.8566C107.603 11.2248 109.159 10.9089 110.823 10.9089C112.641 10.9089 114.236 11.3404 115.608 12.2033C116.979 13.0508 118.088 14.1525 118.936 15.5084L118.797 11.5561ZM111.031 31.5027C112.557 31.5027 113.874 31.1329 114.983 30.3933C116.108 29.6383 116.971 28.6213 117.572 27.3424C118.188 26.0634 118.497 24.6535 118.497 23.1127C118.497 21.541 118.188 20.1234 117.572 18.8598C116.956 17.5809 116.085 16.5716 114.96 15.832C113.851 15.077 112.541 14.6995 111.031 14.6995C109.506 14.6995 108.119 15.077 106.871 15.832C105.623 16.5871 104.629 17.604 103.889 18.883C103.165 20.1465 102.803 21.5564 102.803 23.1127C102.803 24.6689 103.18 26.0866 103.935 27.3655C104.69 28.629 105.692 29.6383 106.94 30.3933C108.188 31.1329 109.552 31.5027 111.031 31.5027Z" fill="white"/>
<path id="Vector_5" d="M96.0436 20.2929V34.6692H92.1606V21.148C92.1606 19.977 91.8755 18.9138 91.3054 17.9584C90.7353 17.0031 89.9725 16.2481 89.0172 15.6934C88.0618 15.1232 86.9986 14.8382 85.8276 14.8382C84.6719 14.8382 83.6087 15.1232 82.638 15.6934C81.6826 16.2481 80.9199 17.0031 80.3498 17.9584C79.7796 18.9138 79.4946 19.977 79.4946 21.148V34.6692H75.6116V11.5561H79.4946V14.4452C80.3112 13.3666 81.3436 12.5114 82.5917 11.8797C83.8398 11.2325 85.1958 10.9089 86.6596 10.9089C88.3854 10.9089 89.9571 11.3327 91.3747 12.1802C92.8077 13.0122 93.9403 14.1371 94.7723 15.5547C95.6198 16.9723 96.0436 18.5517 96.0436 20.2929Z" fill="white"/>
<path id="Vector_6" d="M66.3119 11.5563H70.1949V34.6694H66.3119V11.5563ZM68.2996 7.78886C67.6832 7.78886 67.167 7.58855 66.751 7.18792C66.335 6.78729 66.127 6.28651 66.127 5.68557C66.127 5.08463 66.335 4.58384 66.751 4.18322C67.167 3.78259 67.6755 3.58228 68.2765 3.58228C68.8774 3.58228 69.3859 3.78259 69.8019 4.18322C70.218 4.58384 70.426 5.08463 70.426 5.68557C70.426 6.28651 70.218 6.78729 69.8019 7.18792C69.4013 7.58855 68.9005 7.78886 68.2996 7.78886Z" fill="white"/>
<path id="Vector_7" d="M62.3942 15.4391H57.1475L57.1244 34.6692H53.2414L53.2645 15.4391H49.2891V11.5561H53.2645L53.2414 4.29858H57.1244L57.1475 11.5561H62.3942V15.4391Z" fill="white"/>
<path id="Vector_8" d="M33.5386 34.6692V11.5561H37.4216V14.4452C38.2382 13.3666 39.2706 12.5114 40.5187 11.8797C41.7668 11.2325 43.1228 10.9089 44.5866 10.9089C45.4804 10.9089 46.3432 11.0245 47.1753 11.2556L45.6036 15.1386C44.9719 14.9383 44.3555 14.8382 43.7546 14.8382C42.5989 14.8382 41.5357 15.1232 40.565 15.6934C39.6096 16.2481 38.8469 17.0031 38.2768 17.9584C37.7066 18.9138 37.4216 19.977 37.4216 21.148V34.6692H33.5386Z" fill="white"/>
</g>
</g>
</g>
</g>
</svg>
