<svg width="48" height="48" viewBox="0 0 48 48" fill="none" xmlns="http://www.w3.org/2000/svg">
<circle cx="24" cy="24" r="24" fill="#090909"/>
<path d="M19.8583 29.7009L18.675 32.0675C17.1678 31.4394 15.607 30.8114 13.9477 29.7304C13.3691 29.3534 13.0182 28.7128 13.0043 28.0223C12.9321 24.4777 13.7637 20.9142 15.8692 17.1465C16.1448 16.6534 16.6039 16.2919 17.1364 16.1028C18.4067 15.652 19.2691 15.3035 20.7458 15.0574L21.6333 16.6844C21.6333 16.6844 22.5208 16.3886 23.9999 16.3886C25.4791 16.3886 26.3666 16.6844 26.3666 16.6844L27.254 15.0574C28.7308 15.3035 29.5932 15.652 30.8634 16.1028C31.3959 16.2919 31.8551 16.6534 32.1306 17.1465C34.2362 20.9142 35.0677 24.4777 34.9957 28.0223C34.9817 28.7128 34.6308 29.3534 34.0522 29.7304C32.3929 30.8114 30.8322 31.4394 29.3248 32.0675L28.1415 29.7009M18.0834 28.5175C18.0834 28.5175 21.0417 29.9967 23.9999 29.9967C26.9582 29.9967 29.9165 28.5175 29.9165 28.5175" stroke="white" stroke-width="1.77497" stroke-linecap="round" stroke-linejoin="round"/>
<path d="M20.3023 26.4469C21.3643 26.4469 22.2252 25.4536 22.2252 24.2282C22.2252 23.0029 21.3643 22.0095 20.3023 22.0095C19.2403 22.0095 18.3794 23.0029 18.3794 24.2282C18.3794 25.4536 19.2403 26.4469 20.3023 26.4469Z" fill="white"/>
<path d="M27.6978 26.4469C28.7598 26.4469 29.6207 25.4536 29.6207 24.2282C29.6207 23.0029 28.7598 22.0095 27.6978 22.0095C26.6358 22.0095 25.7749 23.0029 25.7749 24.2282C25.7749 25.4536 26.6358 26.4469 27.6978 26.4469Z" fill="white"/>
</svg>
