<svg width="48" height="48" viewBox="0 0 48 48" fill="none" xmlns="http://www.w3.org/2000/svg">
<g id="Group 345">
<circle id="Ellipse 19" cx="24" cy="24" r="24" fill="#090909"/>
<path id="Vector" fill-rule="evenodd" clip-rule="evenodd" d="M31.6903 14.1368C31.9466 14.0157 32.2272 13.9739 32.5029 14.0158C32.7785 14.0578 33.039 14.1819 33.2574 14.3752C33.4758 14.5686 33.6441 14.8242 33.7447 15.1154C33.8453 15.4065 33.8745 15.7227 33.8294 16.0308L31.4766 32.0553C31.2484 33.601 29.738 34.4875 28.4755 33.7175C27.4194 33.0734 25.8509 32.0809 24.4401 31.0454C23.7347 30.5271 21.5738 28.8672 21.8394 27.6861C22.0676 26.6762 25.6984 22.8812 27.7732 20.6249C28.5875 19.7385 28.2161 19.2271 27.2545 20.0425C24.8664 22.0669 21.0323 25.1456 19.7646 26.0122C18.6463 26.7763 18.0633 26.9068 17.3662 26.7763C16.0944 26.5387 14.9149 26.1706 13.9522 25.7222C12.6513 25.1165 12.7146 23.1083 13.9512 22.5236L31.6903 14.1368Z" fill="white"/>
</g>
</svg>
